<svg data-v-fde0c5aa="" xmlns="http://www.w3.org/2000/svg" viewBox="0 0 300 300" class="iconAboveSlogan"><!----><defs data-v-fde0c5aa=""><!----></defs><rect data-v-fde0c5aa="" fill="#8143D1" x="0" y="0" width="300px" height="300px" class="logo-background-square"></rect><defs data-v-fde0c5aa=""><!----></defs><g data-v-fde0c5aa="" id="8eb40260-f750-4eab-b604-fdf62b93c6d8" fill="#FFFFFF" transform="matrix(4.348553203190845,0,0,4.348553203190845,19.869543398720396,164.40063168265684)"><path d="M4.83 5.73L4.83 5.73L4.83 5.73Q5.17 5.88 5.56 6.10L5.56 6.10L5.56 6.10Q5.95 6.33 6.27 6.66L6.27 6.66L6.27 6.66Q6.59 6.99 6.81 7.41L6.81 7.41L6.81 7.41Q7.03 7.83 7.03 8.34L7.03 8.34L7.03 8.34Q7.03 8.78 6.87 9.29L6.87 9.29L6.87 9.29Q6.71 9.80 6.23 10.18L6.23 10.18L6.23 10.18Q5.96 10.37 5.52 10.58L5.52 10.58L5.52 10.58Q5.07 10.78 4.55 10.82L4.55 10.82L4.55 10.82Q4.03 10.86 3.46 10.78L3.46 10.78L3.46 10.78Q2.90 10.70 2.41 10.57L2.41 10.57L2.41 10.57Q1.39 10.35 0.49 9.83L0.49 9.83L0.49 9.83Q0.25 9.70 0.15 9.56L0.15 9.56L0.15 9.56Q0.03 9.39 0.03 9.18L0.03 9.18L0.03 9.18Q0.03 9.10 0.07 8.97L0.07 8.97L0.07 8.97Q0.11 8.85 0.31 8.76L0.31 8.76L0.31 8.76Q0.36 8.74 0.39 8.74L0.39 8.74L0.39 8.74Q0.46 8.74 0.50 8.78L0.50 8.78L0.50 8.78Q0.55 8.82 0.63 8.90L0.63 8.90L0.63 8.90Q0.70 8.96 0.76 9.03L0.76 9.03L0.76 9.03Q0.83 9.10 0.94 9.21L0.94 9.21L0.94 9.21Q0.97 9.23 1.15 9.29L1.15 9.29L1.15 9.29Q1.33 9.35 1.89 9.49L1.89 9.49L1.89 9.49Q2.55 9.66 3.16 9.80L3.16 9.80L3.16 9.80Q3.78 9.94 4.35 9.83L4.35 9.83L4.35 9.83Q4.91 9.70 5.23 9.49L5.23 9.49L5.23 9.49Q5.54 9.28 5.68 9.06L5.68 9.06L5.68 9.06Q5.82 8.85 5.85 8.66L5.85 8.66L5.85 8.66Q5.88 8.47 5.88 8.40L5.88 8.40L5.88 8.40Q5.88 8.15 5.72 7.89L5.72 7.89L5.72 7.89Q5.56 7.63 5.36 7.42L5.36 7.42L5.36 7.42Q5.15 7.21 4.96 7.07L4.96 7.07L4.96 7.07Q4.77 6.93 4.72 6.90L4.72 6.90L4.72 6.90Q4.54 6.80 4.10 6.67L4.10 6.67L4.10 6.67Q3.67 6.54 3.14 6.29L3.14 6.29L3.14 6.29Q2.62 6.05 2.06 5.64L2.06 5.64L2.06 5.64Q1.50 5.24 1.06 4.59L1.06 4.59L1.06 4.59Q0.90 4.35 0.82 4.02L0.82 4.02L0.82 4.02Q0.74 3.70 0.72 3.37L0.72 3.37L0.72 3.37Q0.70 3.04 0.73 2.74L0.73 2.74L0.73 2.74Q0.76 2.45 0.80 2.25L0.80 2.25L0.80 2.25Q0.94 1.65 1.25 1.02L1.25 1.02L1.25 1.02Q1.55 0.39 1.95-0.06L1.95-0.06L1.95-0.06Q2.34-0.50 2.81-0.76L2.81-0.76L2.81-0.76Q3.28-1.02 3.67-1.02L3.67-1.02L3.67-1.02Q4.20-1.02 4.69-0.83L4.69-0.83L4.69-0.83Q5.18-0.63 5.60-0.18L5.60-0.18L5.60-0.18Q5.99 0.22 6.17 0.68L6.17 0.68L6.17 0.68Q6.34 1.13 6.37 1.60L6.37 1.60L6.37 1.60Q6.38 1.88 6.39 1.94L6.39 1.94L6.39 1.94Q6.40 2.00 6.40 2.01L6.40 2.01L6.40 2.01Q6.40 2.02 6.39 2.06L6.39 2.06L6.39 2.06Q6.38 2.10 6.38 2.35L6.38 2.35L6.38 2.35Q6.38 2.90 6.29 3.15L6.29 3.15L6.29 3.15Q6.20 3.39 6.08 3.46L6.08 3.46L6.08 3.46Q5.95 3.53 5.87 3.53L5.87 3.53L5.87 3.53Q5.68 3.53 5.59 3.45L5.59 3.45L5.59 3.45Q5.49 3.37 5.43 3.30L5.43 3.30L5.43 3.30Q5.32 3.11 5.32 2.77L5.32 2.77L5.32 2.77Q5.32 2.48 5.32 2.39L5.32 2.39L5.32 2.39Q5.32 2.30 5.31 2.22L5.31 2.22L5.31 2.22Q5.31 2.14 5.29 2.02L5.29 2.02L5.29 2.02Q5.28 1.89 5.25 1.54L5.25 1.54L5.25 1.54Q5.22 1.25 5.10 1.03L5.10 1.03L5.10 1.03Q4.98 0.81 4.86 0.63L4.86 0.63L4.86 0.63Q4.76 0.50 4.58 0.39L4.58 0.39L4.58 0.39Q4.40 0.28 4.17 0.22L4.17 0.22L4.17 0.22Q3.95 0.17 3.72 0.18L3.72 0.18L3.72 0.18Q3.49 0.20 3.30 0.32L3.30 0.32L3.30 0.32Q3.07 0.48 2.88 0.64L2.88 0.64L2.88 0.64Q2.69 0.81 2.42 1.23L2.42 1.23L2.42 1.23Q2.27 1.47 2.17 1.76L2.17 1.76L2.17 1.76Q2.07 2.06 2.00 2.51L2.00 2.51L2.00 2.51Q1.97 2.63 1.96 2.83L1.96 2.83L1.96 2.83Q1.95 3.04 1.96 3.27L1.96 3.27L1.96 3.27Q1.97 3.50 2.03 3.75L2.03 3.75L2.03 3.75Q2.09 3.99 2.23 4.19L2.23 4.19L2.23 4.19Q2.55 4.65 2.81 4.87L2.81 4.87L2.81 4.87Q3.08 5.08 3.36 5.19L3.36 5.19L3.36 5.19Q3.64 5.31 3.99 5.40L3.99 5.40L3.99 5.40Q4.34 5.50 4.83 5.73ZM12.01 5.53L12.01 5.53L12.01 5.53Q12.12 5.53 12.23 5.61L12.23 5.61L12.23 5.61Q12.33 5.70 12.33 5.91L12.33 5.91L12.33 5.91Q12.33 6.41 11.82 8.06L11.82 8.06L11.82 8.06Q11.45 9.16 11.11 9.68L11.11 9.68L11.11 9.68Q10.77 10.21 10.37 10.21L10.37 10.21L10.37 10.21Q10.01 10.21 9.79 9.87L9.79 9.87L9.79 9.87Q9.73 9.79 9.66 9.64L9.66 9.64L9.66 9.64Q9.59 9.49 9.52 9.30L9.52 9.30L9.52 9.30Q9.38 9.63 9.33 9.76L9.33 9.76L9.33 9.76Q9.28 9.88 9.25 9.93L9.25 9.93L9.25 9.94L9.25 9.94Q8.89 10.51 8.37 10.51L8.37 10.51L8.37 10.51Q8.22 10.51 8.02 10.42L8.02 10.42L8.02 10.42Q7.81 10.33 7.63 10.04L7.63 10.04L7.63 10.04Q7.38 9.60 7.38 9.04L7.38 9.04L7.38 9.04Q7.38 8.57 7.40 8.03L7.40 8.03L7.40 8.03Q7.42 7.49 7.45 6.86L7.45 6.86L7.45 6.86Q7.48 6.37 7.50 6.09L7.50 6.09L7.50 6.09Q7.53 5.81 7.55 5.67L7.55 5.67L7.55 5.67Q7.57 5.53 7.59 5.48L7.59 5.48L7.59 5.48Q7.60 5.43 7.62 5.40L7.62 5.40L7.62 5.40Q7.66 5.33 7.76 5.26L7.76 5.26L7.76 5.26Q7.85 5.18 8.05 5.18L8.05 5.18L8.05 5.18Q8.13 5.18 8.25 5.22L8.25 5.22L8.25 5.22Q8.36 5.26 8.47 5.39L8.47 5.39L8.47 5.39Q8.65 5.57 8.65 5.78L8.65 5.78L8.65 5.78Q8.65 5.92 8.58 6.17L8.58 6.17L8.58 6.17Q8.54 6.33 8.52 6.41L8.52 6.41L8.52 6.41Q8.50 6.48 8.50 6.51L8.50 6.51L8.50 6.51Q8.29 7.67 8.29 9.27L8.29 9.27L8.29 9.27Q8.29 9.55 8.32 9.63L8.32 9.63L8.32 9.63Q8.36 9.72 8.37 9.73L8.37 9.73L8.37 9.73Q8.44 9.73 8.49 9.66L8.49 9.66L8.49 9.66Q8.54 9.59 8.58 9.52L8.58 9.52L8.58 9.52Q8.65 9.37 8.72 9.21L8.72 9.21L8.72 9.21Q8.79 9.04 8.86 8.89L8.86 8.89L8.86 8.88L8.86 8.88Q9.18 8.19 9.34 7L9.34 7L9.34 7Q9.35 6.93 9.37 6.75L9.37 6.75L9.37 6.75Q9.39 6.58 9.45 6.30L9.45 6.30L9.45 6.29L9.45 6.29Q9.52 5.89 9.52 5.73L9.52 5.73L9.52 5.33L9.52 5.33Q9.48 5.04 9.58 4.83L9.58 4.83L9.58 4.83Q9.69 4.59 9.95 4.59L9.95 4.59L10.04 4.59L10.04 4.59Q10.44 4.61 10.54 4.77L10.54 4.77L10.54 4.77Q10.64 4.93 10.64 5.04L10.64 5.04L10.64 5.04Q10.64 5.18 10.53 5.36L10.53 5.36L10.53 5.36Q10.49 5.45 10.46 5.60L10.46 5.60L10.46 5.60Q10.46 5.61 10.45 5.66L10.45 5.66L10.45 5.66Q10.44 5.70 10.43 5.82L10.43 5.82L10.43 5.82Q10.42 5.94 10.39 6.16L10.39 6.16L10.39 6.16Q10.36 6.38 10.30 6.75L10.30 6.75L10.30 6.75Q10.25 7.15 10.22 7.50L10.22 7.50L10.22 7.50Q10.19 7.84 10.19 8.11L10.19 8.11L10.19 8.11Q10.19 8.44 10.21 8.70L10.21 8.70L10.21 8.70Q10.23 8.96 10.29 9.11L10.29 9.11L10.29 9.11Q10.36 9.32 10.42 9.34L10.42 9.34L10.42 9.34Q10.43 9.34 10.47 9.30L10.47 9.30L10.47 9.30Q10.51 9.25 10.60 9.11L10.60 9.11L10.60 9.11Q10.68 8.97 10.79 8.72L10.79 8.72L10.79 8.72Q10.91 8.47 11.05 8.02L11.05 8.02L11.05 8.02Q11.20 7.46 11.35 6.94L11.35 6.94L11.35 6.94Q11.49 6.41 11.65 5.89L11.65 5.89L11.65 5.89Q11.77 5.53 12.01 5.53ZM16.04 5.66L16.04 5.66L16.04 5.66Q16.27 5.66 16.27 6.06L16.27 6.06L16.27 6.06Q16.27 6.09 16.26 6.15L16.26 6.15L16.26 6.15Q16.25 6.20 16.21 6.41L16.21 6.41L16.21 6.41Q16.16 6.62 16.05 7.02L16.05 7.02L16.05 7.02Q15.95 7.42 15.75 8.12L15.75 8.12L15.75 8.12Q15.41 9.34 15.32 9.58L15.32 9.58L15.32 9.58Q15.01 10.35 14.48 10.35L14.48 10.35L14.48 10.35Q13.47 10.35 13.30 8.48L13.30 8.48L13.30 8.47L13.29 8.26L13.29 7.27L13.29 7.27Q13.16 7.76 12.98 8.51L12.98 8.51L12.98 8.51Q12.80 9.27 12.53 10.43L12.53 10.43L12.52 10.51L12.45 10.56L12.45 10.56Q12.29 10.65 12.12 10.65L12.12 10.65L12.12 10.65Q11.72 10.65 11.52 10.02L11.52 10.02L11.52 10.02Q11.33 9.38 11.33 8.01L11.33 8.01L11.33 8.01Q11.33 7.64 11.41 6.75L11.41 6.75L11.41 6.75Q11.49 5.87 11.68 4.40L11.68 4.40L11.68 4.40Q11.84 2.95 11.94 2.02L11.94 2.02L11.94 2.02Q12.03 1.09 12.03 0.69L12.03 0.69L12.03 0.22L12.04 0.18L12.04 0.18Q12.10 0.07 12.24-0.04L12.24-0.04L12.24-0.04Q12.38-0.15 12.66-0.15L12.66-0.15L12.70-0.15L12.70-0.15Q13.19-0.13 13.19 0.31L13.19 0.31L13.19 0.31Q13.19 0.57 13.09 0.88L13.09 0.88L13.09 0.88Q12.96 1.25 12.92 1.55L12.92 1.55L12.92 1.55Q12.57 3.72 12.40 5.33L12.40 5.33L12.40 5.33Q12.22 6.94 12.22 8.02L12.22 8.02L12.22 8.02Q12.24 8.05 12.24 8.09L12.24 8.09L12.24 8.09Q12.24 8.13 12.24 8.20L12.24 8.20L12.24 8.20Q12.25 8.26 12.26 8.34L12.26 8.34L12.26 8.37L12.26 8.37Q12.33 8.09 12.43 7.76L12.43 7.76L12.43 7.76Q12.52 7.42 12.63 7.01L12.63 7.01L12.63 7.01Q12.87 6.06 13.01 5.51L13.01 5.51L13.01 5.51Q13.15 4.96 13.17 4.79L13.17 4.79L13.17 4.79Q13.24 4.44 13.39 4.33L13.39 4.33L13.39 4.33Q13.54 4.23 13.68 4.23L13.68 4.23L13.68 4.23Q13.78 4.23 13.94 4.30L13.94 4.30L13.94 4.30Q14.10 4.37 14.45 4.68L14.45 4.68L14.53 4.75L14.52 4.86L14.52 4.86Q14.11 7.01 14.11 8.39L14.11 8.39L14.11 8.39Q14.11 8.85 14.19 9.12L14.19 9.12L14.19 9.12Q14.27 9.39 14.39 9.39L14.39 9.39L14.39 9.39Q14.41 9.39 14.49 9.32L14.49 9.32L14.49 9.32Q14.57 9.24 14.71 8.95L14.71 8.95L14.71 8.95Q14.83 8.71 14.98 8.35L14.98 8.35L14.98 8.35Q15.13 7.99 15.26 7.52L15.26 7.52L15.26 7.52Q15.33 7.27 15.44 6.92L15.44 6.92L15.44 6.92Q15.55 6.58 15.67 6.15L15.67 6.15L15.67 6.15Q15.69 6.03 15.77 5.84L15.77 5.84L15.77 5.84Q15.85 5.66 16.04 5.66ZM19.96 5.49L19.96 5.49L19.96 5.49Q20.03 5.50 20.03 5.56L20.03 5.56L20.03 5.56Q20.02 5.63 20.02 5.92L20.02 5.92L20.02 5.92Q20.02 6.20 19.91 6.78L19.91 6.78L19.91 6.78Q19.80 7.35 19.52 8.25L19.52 8.25L19.52 8.25Q19.36 8.74 19.18 9.11L19.18 9.11L19.18 9.11Q19.00 9.49 18.86 9.74L18.86 9.74L18.86 9.74Q18.75 9.94 18.59 10.14L18.59 10.14L18.59 10.14Q18.42 10.33 18.19 10.33L18.19 10.33L18.19 10.33Q17.74 10.33 17.49 9.97L17.49 9.97L17.49 9.97Q17.44 9.90 17.39 9.82L17.39 9.82L17.39 9.82Q17.35 9.74 17.29 9.63L17.29 9.63L17.29 9.63Q16.93 10.64 16.27 10.64L16.27 10.64L16.27 10.64Q15.95 10.64 15.68 10.40L15.68 10.40L15.68 10.40Q15.18 9.88 15.22 8.23L15.22 8.23L15.22 8.23Q15.23 7.97 15.29 7.61L15.29 7.61L15.29 7.61Q15.34 7.25 15.43 6.85L15.43 6.85L15.43 6.85Q15.48 6.62 15.56 6.36L15.56 6.36L15.56 6.36Q15.64 6.09 15.73 5.82L15.73 5.82L15.73 5.82Q15.82 5.56 15.90 5.33L15.90 5.33L15.90 5.33Q15.99 5.11 16.06 4.97L16.06 4.97L16.06 4.97Q16.16 4.79 16.30 4.60L16.30 4.60L16.30 4.60Q16.45 4.41 16.66 4.41L16.66 4.41L16.66 4.41Q16.81 4.41 17.00 4.49L17.00 4.49L17.00 4.49Q17.18 4.56 17.34 4.70L17.34 4.70L17.34 4.70Q17.50 4.83 17.62 5.01L17.62 5.01L17.62 5.01Q17.74 5.19 17.77 5.39L17.77 5.39L17.77 5.39Q17.84 5.84 17.78 6.02L17.78 6.02L17.78 6.02Q17.72 6.20 17.67 6.29L17.67 6.29L17.67 6.29Q17.64 6.31 17.59 6.36L17.59 6.36L17.59 6.36Q17.54 6.40 17.48 6.42L17.48 6.42L17.48 6.42Q17.42 6.44 17.37 6.42L17.37 6.42L17.37 6.42Q17.32 6.40 17.30 6.30L17.30 6.30L17.30 6.30Q17.26 5.96 17.16 5.72L17.16 5.72L17.16 5.72Q17.07 5.47 16.88 5.45L16.88 5.45L16.88 5.45Q16.84 5.52 16.74 5.78L16.74 5.78L16.74 5.78Q16.65 6.05 16.46 6.69L16.46 6.69L16.46 6.69Q16.28 7.34 16.17 7.90L16.17 7.90L16.17 7.90Q16.09 8.57 16.09 9.28L16.09 9.28L16.09 9.28Q16.09 9.51 16.18 9.70L16.18 9.70L16.18 9.70Q16.21 9.76 16.28 9.79L16.28 9.79L16.28 9.79Q16.35 9.83 16.38 9.83L16.38 9.83L16.38 9.83Q16.44 9.83 16.56 9.59L16.56 9.59L16.56 9.59Q16.69 9.35 16.84 8.90L16.84 8.90L16.84 8.90Q17.00 8.50 17.04 8.15L17.04 8.15L17.04 8.15Q17.08 7.80 17.15 7.43L17.15 7.43L17.15 7.43Q17.18 7.32 17.19 7.22L17.19 7.22L17.19 7.22Q17.21 7.13 17.22 7.01L17.22 7.01L17.22 7.01Q17.23 6.90 17.21 6.86L17.21 6.86L17.21 6.86Q17.19 6.82 17.23 6.76L17.23 6.76L17.23 6.76Q17.28 6.71 17.32 6.71L17.32 6.71L17.32 6.71Q17.37 6.71 17.40 6.71L17.40 6.71L17.40 6.71Q17.43 6.71 17.47 6.71L17.47 6.71L17.47 6.71Q17.51 6.72 17.54 6.72L17.54 6.72L17.54 6.72Q17.60 6.72 17.64 6.75L17.64 6.75L17.64 6.75Q17.68 6.79 17.74 6.80L17.74 6.80L17.74 6.80Q17.79 6.82 17.83 6.84L17.83 6.84L17.83 6.84Q17.86 6.86 17.91 6.89L17.91 6.89L17.91 6.89Q17.96 6.90 18.02 6.93L18.02 6.93L18.02 6.93Q18.06 6.96 18.09 7L18.09 7L18.09 7Q18.13 7.04 18.10 7.10L18.10 7.10L18.10 7.10Q18.06 7.22 18.03 7.36L18.03 7.36L18.03 7.36Q17.99 7.50 17.96 7.64L17.96 7.64L17.96 7.64Q17.93 7.84 17.91 8.06L17.91 8.06L17.91 8.06Q17.89 8.29 17.86 8.50L17.86 8.50L17.86 8.50Q17.84 8.88 17.95 9.25L17.95 9.25L17.95 9.25Q18.00 9.41 18.04 9.46L18.04 9.46L18.04 9.46Q18.07 9.51 18.09 9.52L18.09 9.52L18.09 9.52Q18.10 9.52 18.13 9.48L18.13 9.48L18.13 9.48Q18.16 9.45 18.21 9.36L18.21 9.36L18.21 9.36Q18.27 9.27 18.36 9.09L18.36 9.09L18.36 9.09Q18.45 8.92 18.59 8.64L18.59 8.64L18.59 8.64Q18.87 8.06 19.01 7.59L19.01 7.59L19.01 7.59Q19.14 7.13 19.22 6.87L19.22 6.87L19.57 5.89L19.57 5.89Q19.60 5.78 19.68 5.62L19.68 5.62L19.68 5.62Q19.75 5.46 19.96 5.49ZM21.18 9.66L21.18 9.66L21.18 9.66Q20.82 10.44 20.29 10.44L20.29 10.44L20.29 10.44Q20.10 10.44 19.89 10.35L19.89 10.35L19.89 10.35Q19.67 10.25 19.47 9.93L19.47 9.93L19.47 9.93Q19.35 9.69 19.28 9.40L19.28 9.40L19.28 9.40Q19.21 9.11 19.21 8.75L19.21 8.75L19.21 8.75Q19.21 8.44 19.33 7.07L19.33 7.07L19.33 7.07Q19.40 6.40 19.43 5.99L19.43 5.99L19.43 5.99Q19.46 5.57 19.46 5.43L19.46 5.43L19.46 5.43Q19.46 5.29 19.46 5.22L19.46 5.22L19.46 5.22Q19.46 5.15 19.50 5.12L19.50 5.12L19.50 5.12Q19.54 5.10 19.65 5.11L19.65 5.11L19.65 5.11Q19.75 5.12 19.96 5.17L19.96 5.17L19.96 5.17Q20.36 5.24 20.46 5.35L20.46 5.35L20.46 5.35Q20.57 5.46 20.57 5.54L20.57 5.54L20.57 5.54Q20.57 5.59 20.55 5.67L20.55 5.67L20.55 5.67Q20.52 5.75 20.50 5.85L20.50 5.85L20.50 5.85Q20.47 5.95 20.45 6.03L20.45 6.03L20.45 6.03Q20.43 6.12 20.43 6.15L20.43 6.15L20.43 6.15Q20.40 6.26 20.35 6.55L20.35 6.55L20.35 6.55Q20.30 6.85 20.23 7.17L20.23 7.17L20.23 7.17Q20.15 7.62 20.11 7.99L20.11 7.99L20.11 7.99Q20.08 8.36 20.08 8.78L20.08 8.78L20.08 8.78Q20.08 8.85 20.08 8.97L20.08 8.97L20.08 8.97Q20.09 9.10 20.11 9.23L20.11 9.23L20.11 9.23Q20.13 9.37 20.18 9.46L20.18 9.46L20.18 9.46Q20.23 9.56 20.31 9.58L20.31 9.58L20.31 9.58Q20.34 9.56 20.43 9.44L20.43 9.44L20.43 9.44Q20.51 9.32 20.65 8.96L20.65 8.96L20.65 8.96Q20.68 8.88 20.85 8.50L20.85 8.50L20.85 8.50Q21.01 8.12 21.22 7.45L21.22 7.45L21.22 7.45Q21.29 7.22 21.41 6.90L21.41 6.90L21.41 6.90Q21.52 6.58 21.64 6.13L21.64 6.13L21.64 6.13Q21.66 6.08 21.69 5.99L21.69 5.99L21.69 5.99Q21.71 5.89 21.76 5.81L21.76 5.81L21.76 5.81Q21.80 5.73 21.87 5.67L21.87 5.67L21.87 5.67Q21.94 5.61 22.05 5.61L22.05 5.61L22.05 5.61Q22.09 5.61 22.16 5.68L22.16 5.68L22.16 5.68Q22.22 5.74 22.22 6.03L22.22 6.03L22.22 6.03Q22.22 6.10 22.20 6.22L22.20 6.22L22.20 6.22Q22.19 6.34 22.13 6.59L22.13 6.59L22.13 6.59Q22.08 6.83 21.97 7.21L21.97 7.21L21.97 7.21Q21.87 7.59 21.69 8.18L21.69 8.18L21.69 8.18Q21.49 8.81 21.37 9.16L21.37 9.16L21.37 9.16Q21.25 9.52 21.18 9.66ZM20.31 4.55L20.31 4.55L20.31 4.55Q19.95 4.55 19.74 4.27L19.74 4.27L19.74 4.27Q19.52 4.00 19.52 3.72L19.52 3.72L19.52 3.72Q19.52 3.49 19.74 3.26L19.74 3.26L19.74 3.26Q19.99 3.04 20.19 3.04L20.19 3.04L20.19 3.04Q20.52 3.04 20.71 3.23L20.71 3.23L20.71 3.23Q20.89 3.43 20.89 3.79L20.89 3.79L20.89 3.79Q20.89 4.05 20.83 4.20L20.83 4.20L20.83 4.20Q20.76 4.35 20.66 4.43L20.66 4.43L20.66 4.43Q20.57 4.51 20.47 4.53L20.47 4.53L20.47 4.53Q20.37 4.55 20.31 4.55ZM25.13 5.45L25.13 5.45L25.13 5.45Q25.14 5.45 25.20 5.45L25.20 5.45L25.20 5.45Q25.26 5.46 25.32 5.50L25.32 5.50L25.32 5.50Q25.38 5.54 25.42 5.63L25.42 5.63L25.42 5.63Q25.47 5.71 25.47 5.87L25.47 5.87L25.47 5.87Q25.47 6.19 25.31 6.78L25.31 6.78L25.31 6.78Q25.16 7.36 24.85 8.26L24.85 8.26L24.85 8.26Q24.47 9.41 24.09 9.95L24.09 9.95L24.09 9.95Q23.70 10.49 23.28 10.49L23.28 10.49L23.28 10.49Q22.62 10.49 22.12 9.74L22.12 9.74L22.12 9.74Q21.56 8.89 21.56 7.39L21.56 7.39L21.56 7.39Q21.56 6.72 21.64 5.84L21.64 5.84L21.64 5.84Q21.71 4.97 21.87 3.88L21.87 3.88L21.87 3.88Q22.19 1.78 22.50 0.84L22.50 0.84L22.50 0.84Q22.54 0.29 22.68 0.03L22.68 0.03L22.68 0.03Q22.79-0.21 22.95-0.28L22.95-0.28L22.95-0.28Q23.10-0.35 23.21-0.35L23.21-0.35L23.21-0.35Q23.41-0.35 23.62-0.28L23.62-0.28L23.62-0.28Q23.83-0.21 24.00-0.02L24.00-0.02L24.00-0.02Q24.18 0.17 24.29 0.50L24.29 0.50L24.29 0.50Q24.40 0.83 24.40 1.36L24.40 1.36L24.40 1.36Q24.40 2.67 23.90 4.35L23.90 4.35L23.90 4.35Q23.39 6.06 22.72 7.08L22.72 7.08L22.72 7.08Q22.69 7.13 22.67 7.17L22.67 7.17L22.67 7.17Q22.64 7.22 22.57 7.29L22.57 7.29L22.57 7.29Q22.47 7.42 22.44 7.49L22.44 7.49L22.44 7.49Q22.41 7.55 22.41 7.62L22.41 7.62L22.41 7.62Q22.41 8.62 22.86 9.20L22.86 9.20L22.86 9.20Q23.04 9.44 23.15 9.50L23.15 9.50L23.15 9.50Q23.25 9.56 23.31 9.56L23.31 9.56L23.31 9.56Q23.37 9.55 23.42 9.48L23.42 9.48L23.42 9.48Q23.48 9.41 23.56 9.29L23.56 9.29L23.56 9.29Q23.65 9.17 23.76 8.93L23.76 8.93L23.76 8.93Q24.11 8.19 24.53 6.76L24.53 6.76L24.53 6.76Q24.58 6.54 24.63 6.33L24.63 6.33L24.63 6.33Q24.68 6.12 24.74 5.91L24.74 5.91L24.74 5.91Q24.77 5.80 24.85 5.62L24.85 5.62L24.85 5.62Q24.93 5.45 25.13 5.45ZM23.49 1.06L23.49 1.06L23.49 1.06Q23.07 2.49 22.81 3.65L22.81 3.65L22.81 3.65Q22.55 4.80 22.47 5.71L22.47 5.71L22.47 5.71Q22.62 5.36 22.78 4.95L22.78 4.95L22.78 4.95Q22.93 4.54 23.09 4.05L23.09 4.05L23.09 4.05Q23.53 2.51 23.53 1.78L23.53 1.78L23.53 1.78Q23.53 1.32 23.49 1.06ZM34.44 8.71L34.44 8.71L34.44 8.71Q34.44 10.01 34.97 10.70L34.97 10.70L34.97 10.70Q35.01 10.77 35.01 10.85L35.01 10.85L35.01 10.85Q34.99 10.93 34.93 10.98L34.93 10.98L34.93 10.98Q34.47 11.27 34.10 11.27L34.10 11.27L34.10 11.27Q33.94 11.27 33.71 11.05L33.71 11.05L33.71 11.05Q33.64 10.89 33.61 10.74L33.61 10.74L33.61 10.74Q33.59 10.60 33.56 10.44L33.56 10.44L33.56 10.44Q33.52 10.19 33.52 9.93L33.52 9.93L33.52 9.93Q33.52 9.67 33.52 9.42L33.52 9.42L33.52 9.42Q33.52 9.39 33.51 9.39L33.51 9.39L33.51 9.39Q33.50 9.38 33.50 9.37L33.50 9.37L33.50 6.85L33.50 6.85Q33.00 6.80 31.57 6.80L31.57 6.80L30.45 6.80L30.45 6.80Q30.35 6.80 30.26 6.82L30.26 6.82L30.26 6.82Q30.17 6.83 30.13 6.83L30.13 6.83L30.04 6.83L30.02 6.83L30.02 6.83Q29.86 6.85 29.80 6.85L29.80 6.85L29.80 6.85Q29.74 6.85 29.69 6.87L29.69 6.87L29.69 6.87Q29.71 6.87 29.74 6.90L29.74 6.90L29.74 6.90Q29.69 6.93 29.69 7L29.69 7L29.69 7Q29.69 7.13 29.67 7.25L29.67 7.25L29.67 7.25Q29.65 7.38 29.64 7.50L29.64 7.50L29.64 7.50Q29.61 7.64 29.62 7.74L29.62 7.74L29.61 7.74L29.61 7.74Q29.58 8.22 29.56 8.55L29.56 8.55L29.56 8.55Q29.54 8.89 29.54 9.09L29.54 9.09L29.54 9.09Q29.54 9.58 29.59 10.00L29.59 10.00L29.59 10.00Q29.64 10.43 29.72 10.79L29.72 10.79L29.72 10.79Q29.74 10.86 29.69 10.96L29.69 10.96L29.69 10.96Q29.62 11.03 29.55 11.05L29.55 11.05L29.34 11.05L29.34 11.05Q28.99 11.05 28.84 10.93L28.84 10.93L28.84 10.93Q28.69 10.81 28.63 10.68L28.63 10.68L28.63 10.67L28.63 10.67Q28.63 10.65 28.62 10.63L28.62 10.63L28.62 10.63Q28.62 10.60 28.60 10.51L28.60 10.51L28.60 10.51Q28.59 10.43 28.57 10.26L28.57 10.26L28.57 10.26Q28.55 10.08 28.50 9.76L28.50 9.76L28.50 9.76Q28.48 9.53 28.46 9.30L28.46 9.30L28.46 9.30Q28.45 9.06 28.45 8.79L28.45 8.79L28.45 8.79Q28.45 8.54 28.46 8.26L28.46 8.26L28.46 8.26Q28.48 7.98 28.50 7.66L28.50 7.66L28.50 7.66Q28.52 7.52 28.52 7.34L28.52 7.34L28.52 7.34Q28.53 7.17 28.53 7.10L28.53 7.10L28.53 7.10Q28.36 7.13 28.20 7.18L28.20 7.18L28.20 7.18Q28.04 7.24 27.89 7.24L27.89 7.24L27.87 7.24L27.87 7.24Q27.66 7.22 27.51 7.11L27.51 7.11L27.51 7.11Q27.45 7.07 27.41 6.99L27.41 6.99L27.41 6.99Q27.37 6.90 27.37 6.76L27.37 6.76L27.37 6.76Q27.37 6.51 27.48 6.41L27.48 6.41L27.48 6.41Q27.59 6.30 27.69 6.27L27.69 6.27L27.69 6.27Q27.71 6.27 27.73 6.26L27.73 6.26L27.73 6.26Q27.76 6.24 27.86 6.22L27.86 6.22L27.86 6.22Q27.96 6.20 28.13 6.17L28.13 6.17L28.13 6.17Q28.29 6.13 28.57 6.08L28.57 6.08L28.57 6.08Q28.76 4.45 28.85 3.32L28.85 3.32L28.85 3.32Q28.94 2.18 28.94 1.53L28.94 1.53L28.94 1.53Q28.94 0.81 28.85 0.48L28.85 0.48L28.85 0.48Q28.83 0.38 28.90 0.31L28.90 0.31L28.90 0.31Q28.92 0.24 29.04 0.24L29.04 0.24L29.06 0.24L29.06 0.24Q29.75 0.29 30.00 0.57L30.00 0.57L30.00 0.57Q30.27 0.84 30.27 1.55L30.27 1.55L30.27 1.55Q30.27 1.75 30.20 2.29L30.20 2.29L30.20 2.29Q30.14 2.83 30.03 3.74L30.03 3.74L30.03 3.74Q29.93 4.49 29.88 5.04L29.88 5.04L29.88 5.04Q29.83 5.59 29.81 5.91L29.81 5.91L29.81 5.91Q29.92 5.92 30.07 5.92L30.07 5.92L30.07 5.92Q30.23 5.92 30.42 5.92L30.42 5.92L30.42 5.92Q30.62 5.92 30.84 5.92L30.84 5.92L30.84 5.92Q31.07 5.92 31.33 5.91L31.33 5.91L31.33 5.91Q32.21 5.88 32.76 5.87L32.76 5.87L32.76 5.87Q33.31 5.85 33.54 5.85L33.54 5.85L33.54 5.85Q33.59 5.46 33.63 4.75L33.63 4.75L33.63 4.75Q33.78 2.83 33.86 1.78L33.86 1.78L33.86 1.78Q33.94 0.73 33.94 0.55L33.94 0.55L33.94 0.52L33.94 0.52Q33.94 0.50 33.91 0.39L33.91 0.39L33.91 0.39Q33.88 0.31 33.88 0.24L33.88 0.24L33.88 0.24Q33.88 0.18 33.88 0.13L33.88 0.13L33.88 0.13Q33.88 0.07 33.90-0.03L33.90-0.03L33.90-0.03Q33.92-0.13 33.98-0.22L33.98-0.22L33.98-0.22Q34.05-0.31 34.18-0.37L34.18-0.37L34.18-0.37Q34.31-0.43 34.55-0.43L34.55-0.43L34.55-0.43Q34.94-0.43 35.27-0.18L35.27-0.18L35.27-0.18Q35.60 0.07 35.60 0.43L35.60 0.43L35.60 0.43Q35.60 0.49 35.58 0.60L35.58 0.60L35.58 0.60Q35.56 0.71 35.46 0.95L35.46 0.95L35.46 0.95Q35.38 1.15 35.32 1.32L35.32 1.32L35.32 1.32Q35.27 1.50 35.24 1.65L35.24 1.65L35.24 1.65Q35.14 2.14 35.04 2.79L35.04 2.79L35.04 2.79Q34.94 3.43 34.83 4.24L34.83 4.24L34.83 4.24Q34.75 4.87 34.70 5.24L34.70 5.24L34.70 5.24Q34.65 5.60 34.62 5.78L34.62 5.78L34.62 5.78Q34.62 5.80 34.62 5.80L34.62 5.80L34.62 5.80Q34.61 5.81 34.61 5.82L34.61 5.82L34.61 5.82Q34.62 5.95 34.62 6.07L34.62 6.07L34.62 6.07Q34.61 6.19 34.59 6.31L34.59 6.31L34.59 6.31Q34.58 6.37 34.58 6.42L34.58 6.42L34.58 6.42Q34.58 6.47 34.57 6.51L34.57 6.51L34.57 6.51Q34.52 6.64 34.52 6.76L34.52 6.76L34.52 6.79L34.52 6.79Q34.52 7.11 34.48 7.66L34.48 7.66L34.48 7.66Q34.44 8.36 34.44 8.71ZM39.66 5.49L39.66 5.49L39.66 5.49Q39.73 5.50 39.73 5.56L39.73 5.56L39.73 5.56Q39.72 5.63 39.72 5.92L39.72 5.92L39.72 5.92Q39.72 6.20 39.61 6.78L39.61 6.78L39.61 6.78Q39.49 7.35 39.21 8.25L39.21 8.25L39.21 8.25Q39.06 8.74 38.88 9.11L38.88 9.11L38.88 9.11Q38.70 9.49 38.56 9.74L38.56 9.74L38.56 9.74Q38.44 9.94 38.28 10.14L38.28 10.14L38.28 10.14Q38.12 10.33 37.88 10.33L37.88 10.33L37.88 10.33Q37.44 10.33 37.18 9.97L37.18 9.97L37.18 9.97Q37.14 9.90 37.09 9.82L37.09 9.82L37.09 9.82Q37.04 9.74 36.99 9.63L36.99 9.63L36.99 9.63Q36.62 10.64 35.97 10.64L35.97 10.64L35.97 10.64Q35.64 10.64 35.38 10.40L35.38 10.40L35.38 10.40Q34.87 9.88 34.92 8.23L34.92 8.23L34.92 8.23Q34.93 7.97 34.99 7.61L34.99 7.61L34.99 7.61Q35.04 7.25 35.13 6.85L35.13 6.85L35.13 6.85Q35.18 6.62 35.26 6.36L35.26 6.36L35.26 6.36Q35.34 6.09 35.43 5.82L35.43 5.82L35.43 5.82Q35.52 5.56 35.60 5.33L35.60 5.33L35.60 5.33Q35.69 5.11 35.76 4.97L35.76 4.97L35.76 4.97Q35.85 4.79 36.00 4.60L36.00 4.60L36.00 4.60Q36.15 4.41 36.36 4.41L36.36 4.41L36.36 4.41Q36.51 4.41 36.69 4.49L36.69 4.49L36.69 4.49Q36.88 4.56 37.04 4.70L37.04 4.70L37.04 4.70Q37.20 4.83 37.32 5.01L37.32 5.01L37.32 5.01Q37.44 5.19 37.46 5.39L37.46 5.39L37.46 5.39Q37.53 5.84 37.48 6.02L37.48 6.02L37.48 6.02Q37.42 6.20 37.37 6.29L37.37 6.29L37.37 6.29Q37.34 6.31 37.29 6.36L37.29 6.36L37.29 6.36Q37.24 6.40 37.18 6.42L37.18 6.42L37.18 6.42Q37.11 6.44 37.06 6.42L37.06 6.42L37.06 6.42Q37.02 6.40 37.00 6.30L37.00 6.30L37.00 6.30Q36.96 5.96 36.86 5.72L36.86 5.72L36.86 5.72Q36.76 5.47 36.58 5.45L36.58 5.45L36.58 5.45Q36.54 5.52 36.44 5.78L36.44 5.78L36.44 5.78Q36.34 6.05 36.16 6.69L36.16 6.69L36.16 6.69Q35.98 7.34 35.87 7.90L35.87 7.90L35.87 7.90Q35.78 8.57 35.78 9.28L35.78 9.28L35.78 9.28Q35.78 9.51 35.88 9.70L35.88 9.70L35.88 9.70Q35.91 9.76 35.98 9.79L35.98 9.79L35.98 9.79Q36.05 9.83 36.08 9.83L36.08 9.83L36.08 9.83Q36.13 9.83 36.26 9.59L36.26 9.59L36.26 9.59Q36.39 9.35 36.54 8.90L36.54 8.90L36.54 8.90Q36.69 8.50 36.74 8.15L36.74 8.15L36.74 8.15Q36.78 7.80 36.85 7.43L36.85 7.43L36.85 7.43Q36.88 7.32 36.89 7.22L36.89 7.22L36.89 7.22Q36.90 7.13 36.92 7.01L36.92 7.01L36.92 7.01Q36.93 6.90 36.91 6.86L36.91 6.86L36.91 6.86Q36.89 6.82 36.93 6.76L36.93 6.76L36.93 6.76Q36.97 6.71 37.02 6.71L37.02 6.71L37.02 6.71Q37.07 6.71 37.10 6.71L37.10 6.71L37.10 6.71Q37.13 6.71 37.17 6.71L37.17 6.71L37.17 6.71Q37.21 6.72 37.24 6.72L37.24 6.72L37.24 6.72Q37.30 6.72 37.34 6.75L37.34 6.75L37.34 6.75Q37.38 6.79 37.44 6.80L37.44 6.80L37.44 6.80Q37.49 6.82 37.53 6.84L37.53 6.84L37.53 6.84Q37.56 6.86 37.60 6.89L37.60 6.89L37.60 6.89Q37.66 6.90 37.72 6.93L37.72 6.93L37.72 6.93Q37.76 6.96 37.79 7L37.79 7L37.79 7Q37.83 7.04 37.80 7.10L37.80 7.10L37.80 7.10Q37.76 7.22 37.72 7.36L37.72 7.36L37.72 7.36Q37.69 7.50 37.66 7.64L37.66 7.64L37.66 7.64Q37.63 7.84 37.61 8.06L37.61 8.06L37.61 8.06Q37.59 8.29 37.56 8.50L37.56 8.50L37.56 8.50Q37.53 8.88 37.65 9.25L37.65 9.25L37.65 9.25Q37.70 9.41 37.74 9.46L37.74 9.46L37.74 9.46Q37.77 9.51 37.79 9.52L37.79 9.52L37.79 9.52Q37.80 9.52 37.83 9.48L37.83 9.48L37.83 9.48Q37.86 9.45 37.91 9.36L37.91 9.36L37.91 9.36Q37.97 9.27 38.06 9.09L38.06 9.09L38.06 9.09Q38.15 8.92 38.29 8.64L38.29 8.64L38.29 8.64Q38.57 8.06 38.70 7.59L38.70 7.59L38.70 7.59Q38.84 7.13 38.92 6.87L38.92 6.87L39.27 5.89L39.27 5.89Q39.30 5.78 39.38 5.62L39.38 5.62L39.38 5.62Q39.45 5.46 39.66 5.49ZM45.91 5.43L45.91 5.43L45.91 5.43Q46.02 5.43 46.12 5.52L46.12 5.52L46.12 5.52Q46.21 5.60 46.21 5.81L46.21 5.81L46.21 5.81Q46.21 5.85 46.21 5.94L46.21 5.94L46.21 5.94Q46.20 6.02 46.17 6.17L46.17 6.17L46.17 6.17Q46.14 6.33 46.09 6.57L46.09 6.57L46.09 6.57Q46.03 6.80 45.93 7.15L45.93 7.15L45.93 7.15Q45.78 7.67 45.63 8.15L45.63 8.15L45.63 8.15Q45.47 8.62 45.30 9.06L45.30 9.06L45.30 9.06Q44.83 10.35 44.16 10.35L44.16 10.35L44.16 10.35Q43.37 10.35 43.20 8.89L43.20 8.89L43.20 8.89Q43.19 8.89 43.19 8.88L43.19 8.88L43.19 8.54L43.19 8.54Q43.09 8.85 43.03 9.05L43.03 9.05L43.03 9.05Q42.97 9.25 42.92 9.35L42.92 9.35L42.92 9.35Q42.55 10.35 42.03 10.35L42.03 10.35L42.03 10.35Q41.90 10.35 41.78 10.30L41.78 10.30L41.78 10.30Q41.65 10.26 41.55 10.14L41.55 10.14L41.55 10.14Q41.44 10.01 41.37 9.79L41.37 9.79L41.37 9.79Q41.30 9.58 41.30 9.24L41.30 9.24L41.30 9.24Q41.30 9.06 41.38 8.05L41.38 8.05L41.38 8.05Q41.41 7.77 41.42 7.52L41.42 7.52L41.42 7.52Q41.43 7.27 41.44 7.04L41.44 7.04L41.44 7.04Q41.40 7.17 41.36 7.41L41.36 7.41L41.36 7.41Q41.05 8.95 40.92 9.37L40.92 9.37L40.92 9.37Q40.54 10.56 39.96 10.56L39.96 10.56L39.96 10.56Q39.73 10.56 39.61 10.39L39.61 10.39L39.61 10.39Q39.48 10.23 39.41 9.99L39.41 9.99L39.41 9.99Q39.34 9.74 39.32 9.45L39.32 9.45L39.32 9.45Q39.30 9.16 39.30 8.88L39.30 8.88L39.30 8.88Q39.30 8.72 39.30 8.48L39.30 8.48L39.30 8.48Q39.31 8.23 39.33 7.88L39.33 7.88L39.33 7.88Q39.34 7.59 39.34 7.38L39.34 7.38L39.34 7.38Q39.34 7.18 39.34 7.04L39.34 7.04L39.23 6.73L39.23 6.73Q39.21 6.72 39.21 6.68L39.21 6.68L39.21 6.68Q39.16 5.85 39.41 5.57L39.41 5.57L39.41 5.57Q39.55 5.43 39.75 5.43L39.75 5.43L39.75 5.43Q39.83 5.43 39.94 5.46L39.94 5.46L39.94 5.46Q40.04 5.49 40.12 5.57L40.12 5.57L40.12 5.57Q40.21 5.66 40.27 5.81L40.27 5.81L40.27 5.81Q40.33 5.96 40.33 6.22L40.33 6.22L40.33 6.22Q40.33 6.80 40.22 7.32L40.22 7.32L40.22 7.32Q40.12 7.76 40.12 8.40L40.12 8.40L40.12 8.40Q40.12 8.55 40.12 8.70L40.12 8.70L40.12 8.70Q40.12 8.85 40.14 8.99L40.14 8.99L40.14 8.99Q40.17 8.89 40.19 8.80L40.19 8.80L40.19 8.80Q40.22 8.71 40.25 8.61L40.25 8.61L40.25 8.61Q40.42 7.69 40.56 7.08L40.56 7.08L40.56 7.08Q40.70 6.47 40.84 6.12L40.84 6.12L40.84 6.12Q40.87 6.05 40.92 5.92L40.92 5.92L40.92 5.92Q40.98 5.78 41.07 5.65L41.07 5.65L41.07 5.65Q41.16 5.52 41.29 5.42L41.29 5.42L41.29 5.42Q41.43 5.32 41.61 5.32L41.61 5.32L41.61 5.32Q41.72 5.32 41.87 5.39L41.87 5.39L41.87 5.39Q42.01 5.46 42.13 5.70L42.13 5.70L42.13 5.70Q42.27 5.98 42.27 6.54L42.27 6.54L42.27 6.55L42.27 6.55Q42.20 7.20 42.15 7.71L42.15 7.71L42.15 7.71Q42.11 8.22 42.11 8.60L42.11 8.60L42.11 8.60Q42.11 8.75 42.12 8.84L42.12 8.84L42.12 8.84Q42.13 8.93 42.13 9.00L42.13 9.00L42.13 9.00Q42.21 8.89 42.34 8.54L42.34 8.54L42.34 8.54Q42.48 8.19 42.67 7.45L42.67 7.45L42.67 7.45Q42.83 6.87 42.91 6.52L42.91 6.52L42.91 6.52Q42.99 6.16 43.04 5.95L43.04 5.95L43.04 5.95Q43.08 5.74 43.08 5.66L43.08 5.66L43.08 5.66Q43.08 5.59 43.08 5.56L43.08 5.56L43.08 5.49L43.08 5.49Q43.11 5.39 43.20 5.27L43.20 5.27L43.20 5.27Q43.30 5.15 43.60 5.15L43.60 5.15L43.60 5.15Q43.85 5.15 44.28 5.43L44.28 5.43L44.28 5.43Q44.41 5.52 44.37 5.64L44.37 5.64L44.37 5.64Q44.00 7.39 44.00 8.53L44.00 8.53L44.00 8.53Q44.00 8.85 44.02 9.04L44.02 9.04L44.02 9.04Q44.04 9.23 44.07 9.32L44.07 9.32L44.07 9.32Q44.11 9.44 44.16 9.48L44.16 9.48L44.16 9.48Q44.17 9.48 44.22 9.45L44.22 9.45L44.22 9.45Q44.27 9.42 44.36 9.30L44.36 9.30L44.36 9.30Q44.45 9.18 44.58 8.93L44.58 8.93L44.58 8.93Q44.70 8.67 44.86 8.20L44.86 8.20L44.86 8.19L44.86 8.19Q44.87 8.18 44.90 8.09L44.90 8.09L44.90 8.09Q44.93 7.99 44.99 7.77L44.99 7.77L44.99 7.77Q45.05 7.55 45.16 7.15L45.16 7.15L45.16 7.15Q45.26 6.76 45.43 6.15L45.43 6.15L45.43 6.15Q45.46 6.08 45.48 5.99L45.48 5.99L45.48 5.99Q45.50 5.91 45.53 5.82L45.53 5.82L45.56 5.70L45.56 5.68L45.56 5.68Q45.65 5.43 45.91 5.43ZM51.91 5.43L51.91 5.43L51.91 5.43Q52.02 5.43 52.12 5.52L52.12 5.52L52.12 5.52Q52.22 5.60 52.22 5.81L52.22 5.81L52.22 5.81Q52.22 5.85 52.21 5.94L52.21 5.94L52.21 5.94Q52.21 6.02 52.18 6.17L52.18 6.17L52.18 6.17Q52.15 6.33 52.09 6.57L52.09 6.57L52.09 6.57Q52.04 6.80 51.94 7.15L51.94 7.15L51.94 7.15Q51.79 7.67 51.63 8.15L51.63 8.15L51.63 8.15Q51.48 8.62 51.31 9.06L51.31 9.06L51.31 9.06Q50.83 10.35 50.16 10.35L50.16 10.35L50.16 10.35Q49.38 10.35 49.21 8.89L49.21 8.89L49.21 8.89Q49.20 8.89 49.20 8.88L49.20 8.88L49.20 8.54L49.20 8.54Q49.10 8.85 49.04 9.05L49.04 9.05L49.04 9.05Q48.97 9.25 48.93 9.35L48.93 9.35L48.93 9.35Q48.55 10.35 48.03 10.35L48.03 10.35L48.03 10.35Q47.91 10.35 47.78 10.30L47.78 10.30L47.78 10.30Q47.66 10.26 47.55 10.14L47.55 10.14L47.55 10.14Q47.45 10.01 47.38 9.79L47.38 9.79L47.38 9.79Q47.31 9.58 47.31 9.24L47.31 9.24L47.31 9.24Q47.31 9.06 47.39 8.05L47.39 8.05L47.39 8.05Q47.42 7.77 47.43 7.52L47.43 7.52L47.43 7.52Q47.43 7.27 47.45 7.04L47.45 7.04L47.45 7.04Q47.40 7.17 47.36 7.41L47.36 7.41L47.36 7.41Q47.05 8.95 46.93 9.37L46.93 9.37L46.93 9.37Q46.55 10.56 45.96 10.56L45.96 10.56L45.96 10.56Q45.74 10.56 45.61 10.39L45.61 10.39L45.61 10.39Q45.49 10.23 45.42 9.99L45.42 9.99L45.42 9.99Q45.35 9.74 45.33 9.45L45.33 9.45L45.33 9.45Q45.30 9.16 45.30 8.88L45.30 8.88L45.30 8.88Q45.30 8.72 45.31 8.48L45.31 8.48L45.31 8.48Q45.32 8.23 45.33 7.88L45.33 7.88L45.33 7.88Q45.35 7.59 45.35 7.38L45.35 7.38L45.35 7.38Q45.35 7.18 45.35 7.04L45.35 7.04L45.23 6.73L45.23 6.73Q45.22 6.72 45.22 6.68L45.22 6.68L45.22 6.68Q45.16 5.85 45.42 5.57L45.42 5.57L45.42 5.57Q45.56 5.43 45.75 5.43L45.75 5.43L45.75 5.43Q45.84 5.43 45.94 5.46L45.94 5.46L45.94 5.46Q46.05 5.49 46.13 5.57L46.13 5.57L46.13 5.57Q46.21 5.66 46.28 5.81L46.28 5.81L46.28 5.81Q46.34 5.96 46.34 6.22L46.34 6.22L46.34 6.22Q46.34 6.80 46.23 7.32L46.23 7.32L46.23 7.32Q46.13 7.76 46.13 8.40L46.13 8.40L46.13 8.40Q46.13 8.55 46.13 8.70L46.13 8.70L46.13 8.70Q46.13 8.85 46.14 8.99L46.14 8.99L46.14 8.99Q46.17 8.89 46.20 8.80L46.20 8.80L46.20 8.80Q46.23 8.71 46.26 8.61L46.26 8.61L46.26 8.61Q46.42 7.69 46.56 7.08L46.56 7.08L46.56 7.08Q46.70 6.47 46.84 6.12L46.84 6.12L46.84 6.12Q46.87 6.05 46.93 5.92L46.93 5.92L46.93 5.92Q46.98 5.78 47.08 5.65L47.08 5.65L47.08 5.65Q47.17 5.52 47.30 5.42L47.30 5.42L47.30 5.42Q47.43 5.32 47.61 5.32L47.61 5.32L47.61 5.32Q47.73 5.32 47.87 5.39L47.87 5.39L47.87 5.39Q48.02 5.46 48.13 5.70L48.13 5.70L48.13 5.70Q48.27 5.98 48.27 6.54L48.27 6.54L48.27 6.55L48.27 6.55Q48.20 7.20 48.16 7.71L48.16 7.71L48.16 7.71Q48.12 8.22 48.12 8.60L48.12 8.60L48.12 8.60Q48.12 8.75 48.13 8.84L48.13 8.84L48.13 8.84Q48.13 8.93 48.13 9.00L48.13 9.00L48.13 9.00Q48.22 8.89 48.35 8.54L48.35 8.54L48.35 8.54Q48.48 8.19 48.68 7.45L48.68 7.45L48.68 7.45Q48.83 6.87 48.92 6.52L48.92 6.52L48.92 6.52Q49 6.16 49.04 5.95L49.04 5.95L49.04 5.95Q49.08 5.74 49.08 5.66L49.08 5.66L49.08 5.66Q49.08 5.59 49.08 5.56L49.08 5.56L49.08 5.49L49.08 5.49Q49.11 5.39 49.21 5.27L49.21 5.27L49.21 5.27Q49.31 5.15 49.60 5.15L49.60 5.15L49.60 5.15Q49.85 5.15 50.29 5.43L50.29 5.43L50.29 5.43Q50.41 5.52 50.37 5.64L50.37 5.64L50.37 5.64Q50.01 7.39 50.01 8.53L50.01 8.53L50.01 8.53Q50.01 8.85 50.03 9.04L50.03 9.04L50.03 9.04Q50.05 9.23 50.08 9.32L50.08 9.32L50.08 9.32Q50.12 9.44 50.16 9.48L50.16 9.48L50.16 9.48Q50.18 9.48 50.23 9.45L50.23 9.45L50.23 9.45Q50.27 9.42 50.37 9.30L50.37 9.30L50.37 9.30Q50.46 9.18 50.58 8.93L50.58 8.93L50.58 8.93Q50.71 8.67 50.86 8.20L50.86 8.20L50.86 8.19L50.86 8.19Q50.88 8.18 50.90 8.09L50.90 8.09L50.90 8.09Q50.93 7.99 51.00 7.77L51.00 7.77L51.00 7.77Q51.06 7.55 51.16 7.15L51.16 7.15L51.16 7.15Q51.27 6.76 51.44 6.15L51.44 6.15L51.44 6.15Q51.46 6.08 51.48 5.99L51.48 5.99L51.48 5.99Q51.51 5.91 51.53 5.82L51.53 5.82L51.56 5.70L51.56 5.68L51.56 5.68Q51.66 5.43 51.91 5.43ZM55.76 5.49L55.76 5.49L55.76 5.49Q55.83 5.50 55.83 5.56L55.83 5.56L55.83 5.56Q55.82 5.63 55.82 5.92L55.82 5.92L55.82 5.92Q55.82 6.20 55.71 6.78L55.71 6.78L55.71 6.78Q55.59 7.35 55.31 8.25L55.31 8.25L55.31 8.25Q55.16 8.74 54.98 9.11L54.98 9.11L54.98 9.11Q54.80 9.49 54.66 9.74L54.66 9.74L54.66 9.74Q54.54 9.94 54.38 10.14L54.38 10.14L54.38 10.14Q54.22 10.33 53.98 10.33L53.98 10.33L53.98 10.33Q53.54 10.33 53.28 9.97L53.28 9.97L53.28 9.97Q53.24 9.90 53.19 9.82L53.19 9.82L53.19 9.82Q53.14 9.74 53.09 9.63L53.09 9.63L53.09 9.63Q52.72 10.64 52.07 10.64L52.07 10.64L52.07 10.64Q51.74 10.64 51.48 10.40L51.48 10.40L51.48 10.40Q50.97 9.88 51.02 8.23L51.02 8.23L51.02 8.23Q51.03 7.97 51.09 7.61L51.09 7.61L51.09 7.61Q51.14 7.25 51.23 6.85L51.23 6.85L51.23 6.85Q51.28 6.62 51.36 6.36L51.36 6.36L51.36 6.36Q51.44 6.09 51.53 5.82L51.53 5.82L51.53 5.82Q51.62 5.56 51.70 5.33L51.70 5.33L51.70 5.33Q51.79 5.11 51.86 4.97L51.86 4.97L51.86 4.97Q51.95 4.79 52.10 4.60L52.10 4.60L52.10 4.60Q52.25 4.41 52.46 4.41L52.46 4.41L52.46 4.41Q52.61 4.41 52.79 4.49L52.79 4.49L52.79 4.49Q52.98 4.56 53.14 4.70L53.14 4.70L53.14 4.70Q53.30 4.83 53.42 5.01L53.42 5.01L53.42 5.01Q53.54 5.19 53.56 5.39L53.56 5.39L53.56 5.39Q53.63 5.84 53.58 6.02L53.58 6.02L53.58 6.02Q53.52 6.20 53.47 6.29L53.47 6.29L53.47 6.29Q53.44 6.31 53.39 6.36L53.39 6.36L53.39 6.36Q53.34 6.40 53.28 6.42L53.28 6.42L53.28 6.42Q53.21 6.44 53.17 6.42L53.17 6.42L53.17 6.42Q53.12 6.40 53.10 6.30L53.10 6.30L53.10 6.30Q53.06 5.96 52.96 5.72L52.96 5.72L52.96 5.72Q52.86 5.47 52.68 5.45L52.68 5.45L52.68 5.45Q52.64 5.52 52.54 5.78L52.54 5.78L52.54 5.78Q52.44 6.05 52.26 6.69L52.26 6.69L52.26 6.69Q52.08 7.34 51.97 7.90L51.97 7.90L51.97 7.90Q51.88 8.57 51.88 9.28L51.88 9.28L51.88 9.28Q51.88 9.51 51.98 9.70L51.98 9.70L51.98 9.70Q52.01 9.76 52.08 9.79L52.08 9.79L52.08 9.79Q52.15 9.83 52.18 9.83L52.18 9.83L52.18 9.83Q52.23 9.83 52.36 9.59L52.36 9.59L52.36 9.59Q52.49 9.35 52.64 8.90L52.64 8.90L52.64 8.90Q52.79 8.50 52.84 8.15L52.84 8.15L52.84 8.15Q52.88 7.80 52.95 7.43L52.95 7.43L52.95 7.43Q52.98 7.32 52.99 7.22L52.99 7.22L52.99 7.22Q53.00 7.13 53.02 7.01L53.02 7.01L53.02 7.01Q53.03 6.90 53.01 6.86L53.01 6.86L53.01 6.86Q52.99 6.82 53.03 6.76L53.03 6.76L53.03 6.76Q53.07 6.71 53.12 6.71L53.12 6.71L53.12 6.71Q53.17 6.71 53.20 6.71L53.20 6.71L53.20 6.71Q53.23 6.71 53.27 6.71L53.27 6.71L53.27 6.71Q53.31 6.72 53.34 6.72L53.34 6.72L53.34 6.72Q53.40 6.72 53.44 6.75L53.44 6.75L53.44 6.75Q53.48 6.79 53.54 6.80L53.54 6.80L53.54 6.80Q53.59 6.82 53.63 6.84L53.63 6.84L53.63 6.84Q53.66 6.86 53.70 6.89L53.70 6.89L53.70 6.89Q53.76 6.90 53.82 6.93L53.82 6.93L53.82 6.93Q53.86 6.96 53.89 7L53.89 7L53.89 7Q53.93 7.04 53.90 7.10L53.90 7.10L53.90 7.10Q53.86 7.22 53.82 7.36L53.82 7.36L53.82 7.36Q53.79 7.50 53.76 7.64L53.76 7.64L53.76 7.64Q53.73 7.84 53.71 8.06L53.71 8.06L53.71 8.06Q53.69 8.29 53.66 8.50L53.66 8.50L53.66 8.50Q53.63 8.88 53.75 9.25L53.75 9.25L53.75 9.25Q53.80 9.41 53.84 9.46L53.84 9.46L53.84 9.46Q53.87 9.51 53.89 9.52L53.89 9.52L53.89 9.52Q53.90 9.52 53.93 9.48L53.93 9.48L53.93 9.48Q53.96 9.45 54.01 9.36L54.01 9.36L54.01 9.36Q54.07 9.27 54.16 9.09L54.16 9.09L54.16 9.09Q54.25 8.92 54.39 8.64L54.39 8.64L54.39 8.64Q54.67 8.06 54.80 7.59L54.80 7.59L54.80 7.59Q54.94 7.13 55.02 6.87L55.02 6.87L55.37 5.89L55.37 5.89Q55.40 5.78 55.48 5.62L55.48 5.62L55.48 5.62Q55.55 5.46 55.76 5.49ZM59.77 5.49L59.77 5.49L59.77 5.49Q59.82 5.49 59.82 5.56L59.82 5.56L59.82 5.56Q59.81 5.63 59.81 5.92L59.81 5.92L59.81 5.92Q59.81 6.44 59.21 8.26L59.21 8.26L59.21 8.26Q58.97 8.96 58.79 9.38L58.79 9.38L58.79 9.38Q58.60 9.80 58.46 10.02L58.46 10.02L58.46 10.02Q58.31 10.23 58.19 10.30L58.19 10.30L58.19 10.30Q58.07 10.37 57.97 10.37L57.97 10.37L57.97 10.37Q57.29 10.37 57.05 9.38L57.05 9.38L57.05 9.38Q56.80 9.93 56.63 10.14L56.63 10.14L56.63 10.14Q56.35 10.54 55.97 10.54L55.97 10.54L55.97 10.54Q55.80 10.54 55.57 10.44L55.57 10.44L55.57 10.44Q55.34 10.33 55.15 10.00L55.15 10.00L55.15 10.00Q54.85 9.52 54.85 8.76L54.85 8.76L54.85 8.76Q54.85 8.15 54.95 7.53L54.95 7.53L54.95 7.53Q55.05 6.90 55.29 6.12L55.29 6.12L55.29 6.12Q55.85 4.28 56.63 4.28L56.63 4.28L56.63 4.28Q56.91 4.28 57.22 4.55L57.22 4.55L57.22 4.55Q57.25 4.56 57.25 4.58L57.25 4.58L57.25 4.58Q57.26 4.59 57.29 4.61L57.29 4.61L57.29 4.61Q57.37 3.89 57.51 2.82L57.51 2.82L57.51 2.82Q57.64 1.75 57.82 0.45L57.82 0.45L57.82 0.45Q57.81 0.34 57.83 0.11L57.83 0.11L57.83 0.11Q57.85-0.11 58.04-0.20L58.04-0.20L58.09-0.21L58.41-0.21L58.41-0.21Q58.59-0.21 58.68-0.13L58.68-0.13L58.68-0.13Q58.77-0.06 58.84 0.07L58.84 0.07L58.84 0.07Q58.94 0.22 58.91 0.55L58.91 0.55L58.90 0.56L58.90 0.56Q58.77 1.22 58.64 1.90L58.64 1.90L58.64 1.90Q58.51 2.58 58.35 3.37L58.35 3.37L58.35 3.37Q58.34 3.49 58.25 4.18L58.25 4.18L58.25 4.18Q58.16 4.87 57.99 6.17L57.99 6.17L57.99 6.17Q57.74 8.09 57.74 8.65L57.74 8.65L57.74 8.65Q57.75 9.10 57.80 9.29L57.80 9.29L57.80 9.29Q57.85 9.48 57.88 9.53L57.88 9.53L57.88 9.53Q57.95 9.46 58.08 9.18L58.08 9.18L58.08 9.18Q58.21 8.89 58.52 8.19L58.52 8.19L58.52 8.19Q58.76 7.64 58.98 7.07L58.98 7.07L58.98 7.07Q59.21 6.50 59.36 5.99L59.36 5.99L59.36 5.99Q59.37 5.94 59.40 5.85L59.40 5.85L59.40 5.85Q59.43 5.77 59.47 5.68L59.47 5.68L59.47 5.68Q59.51 5.60 59.58 5.54L59.58 5.54L59.58 5.54Q59.65 5.49 59.77 5.49ZM57.04 6.41L57.04 6.40L57.04 6.40Q57.06 6.16 57.08 6.06L57.08 6.06L57.08 6.06Q57.09 5.96 57.09 5.85L57.09 5.85L57.09 5.85Q57.09 5.50 57.00 5.44L57.00 5.44L57.00 5.44Q56.91 5.38 56.85 5.38L56.85 5.38L56.85 5.38Q56.84 5.38 56.79 5.38L56.79 5.38L56.79 5.38Q56.74 5.38 56.65 5.46L56.65 5.46L56.65 5.46Q56.56 5.54 56.44 5.75L56.44 5.75L56.44 5.75Q56.32 5.95 56.18 6.37L56.18 6.37L56.18 6.37Q55.79 7.50 55.79 8.46L55.79 8.46L55.79 8.46Q55.79 8.81 55.80 9.04L55.80 9.04L55.80 9.04Q55.82 9.27 55.84 9.41L55.84 9.41L55.84 9.41Q55.86 9.55 55.89 9.61L55.89 9.61L55.89 9.61Q55.92 9.67 55.94 9.70L55.94 9.70L55.94 9.70Q56.04 9.76 56.15 9.55L56.15 9.55L56.15 9.55Q56.27 9.34 56.49 8.72L56.49 8.72L56.50 8.72L56.50 8.72Q56.80 7.97 56.97 7.21L56.97 7.21L56.97 7.21Q56.98 7.08 56.99 6.89L56.99 6.89L56.99 6.89Q57.01 6.69 57.04 6.41L57.04 6.41Z"></path></g><defs data-v-fde0c5aa=""><!----></defs><g data-v-fde0c5aa="" id="015792b2-f5b1-4b04-9303-ce5b80ab7b3e" stroke="none" fill="#4CBBE5" transform="matrix(2.3009085338181197,0,0,2.3009085338181197,113.18546345891008,68.33603441616442)"><path d="M9.663 12.988L12.675 16l-6.338 6.337 3.326 3.326L16 19.325l3.012 3.012-6.337 6.338L16 32l6.337-6.337 3.326-3.326L32 16l-3.325-3.325-6.338 6.337L19.325 16l6.338-6.337-3.326-3.326L16 12.675l-3.012-3.012 6.337-6.338L16 0 9.663 6.337 6.337 9.663 0 16l3.325 3.325z"></path></g><defs data-v-fde0c5aa=""><!----></defs><g data-v-fde0c5aa="" id="6b932d4e-9547-4bae-9188-66267482a4cf" fill="#FFFFFF" transform="matrix(0.5960386288581776,0,0,0.5960386288581776,52.27350530611269,222.06774343184819)"><path d="M0.96 3.64L0.38 3.64L0.39 3.08L3.90 3.08L3.90 3.64L3.67 3.64L3.67 3.64Q3.12 3.64 2.95 3.73L2.95 3.73L2.95 3.73Q2.82 3.81 2.82 4.28L2.82 4.28L2.82 11.22L2.82 11.22Q2.82 11.68 2.93 11.77L2.93 11.77L2.93 11.77Q3.04 11.87 3.57 11.87L3.57 11.87L4.12 11.87L4.13 12.41L0.55 12.41L0.53 11.87L0.90 11.87L0.90 11.87Q1.46 11.87 1.57 11.77L1.57 11.77L1.57 11.77Q1.68 11.67 1.68 11.25L1.68 11.25L1.68 4.14L1.68 4.14Q1.68 3.77 1.58 3.71L1.58 3.71L1.58 3.71Q1.47 3.64 0.96 3.64L0.96 3.64ZM12.15 5.35L11.65 5.33L11.65 5.33Q11.77 4.17 11.85 3.08L11.85 3.08L19.93 3.08L19.93 3.08Q19.85 4.13 19.82 4.53L19.82 4.53L19.82 4.53Q19.78 5.26 19.76 5.32L19.76 5.32L19.26 5.30L19.26 5.30Q19.35 4.34 19.35 4.16L19.35 4.16L19.35 4.16Q19.35 3.88 19.20 3.79L19.20 3.79L19.20 3.79Q19.03 3.69 18.63 3.69L18.63 3.69L17.02 3.69L17.02 3.69Q16.52 3.69 16.39 3.79L16.39 3.79L16.39 3.79Q16.30 3.87 16.29 4.36L16.29 4.36L16.29 11.22L16.29 11.22Q16.29 11.66 16.43 11.76L16.43 11.76L16.43 11.76Q16.59 11.87 17.10 11.87L17.10 11.87L17.66 11.87L17.68 12.41L13.99 12.40L13.99 11.87L14.21 11.87L14.21 11.87Q14.88 11.87 15.02 11.79L15.02 11.79L15.02 11.79Q15.16 11.70 15.16 11.28L15.16 11.28L15.16 4.48L15.16 4.48Q15.16 3.92 15.06 3.80L15.06 3.80L15.06 3.80Q14.96 3.69 14.54 3.69L14.54 3.69L13.07 3.69L13.07 3.69Q12.89 3.69 12.82 3.71L12.82 3.71L12.82 3.71Q12.75 3.72 12.64 3.72L12.64 3.72L12.64 3.72Q12.61 3.72 12.50 3.79L12.50 3.79L12.50 3.79Q12.41 3.84 12.39 3.86L12.39 3.86L12.39 3.86Q12.36 3.88 12.32 3.99L12.32 3.99L12.32 3.99Q12.29 4.05 12.26 4.14L12.26 4.14L12.26 4.14Q12.24 4.21 12.22 4.36L12.22 4.36L12.22 4.36Q12.19 4.59 12.19 4.61L12.19 4.61L12.19 4.61Q12.19 4.80 12.17 4.95L12.17 4.95L12.17 4.95Q12.17 5.02 12.17 5.15L12.17 5.15L12.17 5.15Q12.16 5.29 12.15 5.35L12.15 5.35ZM37.73 11.84L37.73 11.84L37.73 11.84Q37.73 11.68 38.01 11.45L38.01 11.45L38.01 11.45Q38.29 11.21 38.40 11.21L38.40 11.21L38.40 11.21Q38.60 11.21 38.84 11.49L38.84 11.49L38.84 11.49Q39.07 11.76 39.07 11.91L39.07 11.91L39.07 11.91Q39.07 12.09 38.80 12.32L38.80 12.32L38.80 12.32Q38.52 12.56 38.36 12.55L38.36 12.55L38.36 12.55Q38.24 12.55 37.99 12.29L37.99 12.29L37.99 12.29Q37.73 12.02 37.73 11.84ZM60.09 12.41L57.07 12.41L57.07 11.87L57.21 11.87L57.21 11.87Q57.80 11.87 57.91 11.77L57.91 11.77L57.91 11.77Q58.04 11.68 58.05 11.21L58.05 11.21L58.18 4.38L58.18 4.38Q58.18 4.35 58.19 4.28L58.19 4.28L58.19 4.28Q58.19 4.21 58.19 4.17L58.19 4.17L58.19 4.01L58.19 4.01Q58.19 3.76 58.12 3.71L58.12 3.71L58.12 3.71Q58.02 3.64 57.80 3.64L57.80 3.64L57.09 3.64L57.07 3.08L59.19 3.08L62.38 10.55L65.52 3.08L67.75 3.08L67.75 3.64L67.28 3.64L67.28 3.64Q66.83 3.64 66.71 3.71L66.71 3.71L66.71 3.71Q66.55 3.79 66.55 4.08L66.55 4.08L66.55 11.22L66.55 11.22Q66.55 11.68 66.66 11.77L66.66 11.77L66.66 11.77Q66.77 11.87 67.40 11.87L67.40 11.87L67.68 11.87L67.70 12.41L64.30 12.41L64.28 11.87L64.56 11.87L64.56 11.87Q65.17 11.87 65.29 11.77L65.29 11.77L65.29 11.77Q65.41 11.66 65.41 11.25L65.41 11.25L65.41 4.83L63.26 9.91L62.41 12.02L62.41 12.02Q62.27 12.37 62.22 12.44L62.22 12.44L62.22 12.44Q62.18 12.51 62.11 12.51L62.11 12.51L62.11 12.51Q62.02 12.51 61.56 11.52L61.56 11.52L58.75 5.01L58.69 11.39L58.69 11.39Q58.69 11.74 58.89 11.80L58.89 11.80L58.89 11.80Q59.13 11.87 60.09 11.87L60.09 11.87L60.09 12.41ZM75.42 11.50L75.42 11.50L75.42 11.50Q75.42 10.64 76.23 10.01L76.23 10.01L76.23 10.01Q77.08 9.37 78.24 9.37L78.24 9.37L78.24 8.52L78.24 8.52Q78.24 8.03 78.07 7.78L78.07 7.78L78.07 7.78Q77.90 7.53 77.30 7.53L77.30 7.53L77.30 7.53Q76.38 7.55 76.17 7.96L76.17 7.96L76.17 7.96Q76.19 8.10 76.22 8.19L76.22 8.19L76.22 8.19Q76.23 8.24 76.25 8.33L76.25 8.33L76.28 8.42L76.28 8.42Q76.30 8.53 76.30 8.58L76.30 8.58L76.30 8.58Q76.30 8.75 76.14 8.85L76.14 8.85L76.14 8.85Q75.98 8.94 75.86 8.94L75.86 8.94L75.86 8.94Q75.54 8.94 75.54 8.44L75.54 8.44L75.54 8.44Q75.54 8.25 75.63 8.05L75.63 8.05L75.63 8.05Q75.74 7.79 75.98 7.54L75.98 7.54L75.98 7.54Q76.25 7.25 76.77 7.07L76.77 7.07L76.77 7.07Q77.31 6.87 77.98 6.87L77.98 6.87L77.98 6.87Q78.21 6.87 78.32 6.90L78.32 6.90L78.32 6.90Q78.50 6.94 78.71 7.04L78.71 7.04L78.71 7.04Q78.92 7.14 79.08 7.40L79.08 7.40L79.08 7.40Q79.21 7.64 79.21 7.99L79.21 7.99L79.21 10.61L79.21 10.61Q79.21 11.12 79.40 11.44L79.40 11.44L79.40 11.44Q79.57 11.73 80.12 11.88L80.12 11.88L80.12 11.88Q80.25 11.92 80.25 12.00L80.25 12.00L80.25 12.00Q80.25 12.08 80.12 12.15L80.12 12.15L80.12 12.15Q79.43 12.61 79.29 12.65L79.29 12.65L79.29 12.65Q79.06 12.48 78.96 12.39L78.96 12.39L78.76 12.17L78.54 11.92L78.54 11.92Q78.50 11.88 78.46 11.82L78.46 11.82L78.46 11.82Q78.42 11.76 78.39 11.72L78.39 11.72L78.39 11.72Q78.36 11.69 78.35 11.67L78.35 11.67L78.35 11.67Q78.11 12.00 77.61 12.30L77.61 12.30L77.61 12.30Q77.16 12.57 76.71 12.57L76.71 12.57L76.71 12.57Q76.21 12.57 75.81 12.30L75.81 12.30L75.81 12.30Q75.42 12.04 75.42 11.50ZM76.41 11.09L76.41 11.09L76.41 11.09Q76.41 11.39 76.61 11.60L76.61 11.60L76.61 11.60Q76.82 11.81 77.25 11.81L77.25 11.81L77.25 11.81Q77.78 11.81 78.01 11.57L78.01 11.57L78.01 11.57Q78.24 11.35 78.24 11.04L78.24 11.04L78.24 9.74L78.24 9.74Q77.42 9.74 76.92 10.16L76.92 10.16L76.92 10.16Q76.41 10.59 76.41 11.09ZM87.60 12.41L87.59 11.96L87.73 11.96L87.73 11.96Q88.18 11.96 88.27 11.89L88.27 11.89L88.27 11.89Q88.35 11.83 88.35 11.49L88.35 11.49L88.35 8.16L88.35 8.16Q88.35 7.70 88.31 7.58L88.31 7.58L88.31 7.58Q88.27 7.46 88.15 7.46L88.15 7.46L88.09 7.47L88.09 7.47Q88.04 7.49 87.90 7.51L87.90 7.51L87.90 7.51Q87.75 7.54 87.62 7.57L87.62 7.57L87.62 7.14L89.34 6.79L89.34 6.79Q89.30 7.29 89.30 7.78L89.30 7.78L89.34 7.75L89.34 7.75Q89.38 7.71 89.47 7.65L89.47 7.65L89.47 7.65Q89.56 7.58 89.66 7.51L89.66 7.51L89.66 7.51Q90.00 7.26 90.45 7.08L90.45 7.08L90.45 7.08Q90.92 6.88 91.41 6.88L91.41 6.88L91.41 6.88Q91.75 6.88 91.97 6.97L91.97 6.97L91.97 6.97Q92.21 7.05 92.35 7.23L92.35 7.23L92.35 7.23Q92.46 7.39 92.57 7.59L92.57 7.59L92.57 7.59Q92.64 7.72 92.68 8.07L92.68 8.07L92.68 8.07Q92.72 8.39 92.72 8.58L92.72 8.58L92.72 8.58Q92.72 8.63 92.73 8.81L92.73 8.81L92.73 8.81Q92.74 9.00 92.74 9.14L92.74 9.14L92.74 11.55L92.74 11.55Q92.74 11.83 92.89 11.89L92.89 11.89L92.89 11.89Q93.06 11.96 93.59 11.96L93.59 11.96L93.58 12.41L90.97 12.41L90.96 11.96L91.28 11.96L91.28 11.96Q91.57 11.96 91.68 11.89L91.68 11.89L91.68 11.89Q91.76 11.83 91.76 11.55L91.76 11.55L91.76 8.73L91.76 8.73Q91.76 8.13 91.55 7.91L91.55 7.91L91.55 7.91Q91.33 7.67 90.85 7.67L90.85 7.67L90.85 7.67Q90.58 7.67 90.18 7.78L90.18 7.78L90.18 7.78Q89.79 7.89 89.58 8.00L89.58 8.00L89.34 8.11L89.34 11.49L89.34 11.49Q89.34 11.83 89.45 11.89L89.45 11.89L89.45 11.89Q89.56 11.96 90.18 11.96L90.18 11.96L90.36 11.96L90.33 12.41L87.60 12.41ZM101.19 11.50L101.19 11.50L101.19 11.50Q101.19 10.64 102.01 10.01L102.01 10.01L102.01 10.01Q102.85 9.37 104.01 9.37L104.01 9.37L104.01 8.52L104.01 8.52Q104.01 8.03 103.84 7.78L103.84 7.78L103.84 7.78Q103.67 7.53 103.07 7.53L103.07 7.53L103.07 7.53Q102.15 7.55 101.94 7.96L101.94 7.96L101.94 7.96Q101.96 8.10 101.99 8.19L101.99 8.19L101.99 8.19Q102.01 8.24 102.03 8.33L102.03 8.33L102.05 8.42L102.05 8.42Q102.07 8.53 102.07 8.58L102.07 8.58L102.07 8.58Q102.07 8.75 101.91 8.85L101.91 8.85L101.91 8.85Q101.75 8.94 101.63 8.94L101.63 8.94L101.63 8.94Q101.31 8.94 101.31 8.44L101.31 8.44L101.31 8.44Q101.31 8.25 101.40 8.05L101.40 8.05L101.40 8.05Q101.51 7.79 101.75 7.54L101.75 7.54L101.75 7.54Q102.02 7.25 102.54 7.07L102.54 7.07L102.54 7.07Q103.09 6.87 103.76 6.87L103.76 6.87L103.76 6.87Q103.98 6.87 104.09 6.90L104.09 6.90L104.09 6.90Q104.28 6.94 104.48 7.04L104.48 7.04L104.48 7.04Q104.69 7.14 104.85 7.40L104.85 7.40L104.85 7.40Q104.99 7.64 104.99 7.99L104.99 7.99L104.99 10.61L104.99 10.61Q104.99 11.12 105.17 11.44L105.17 11.44L105.17 11.44Q105.34 11.73 105.90 11.88L105.90 11.88L105.90 11.88Q106.02 11.92 106.03 12.00L106.03 12.00L106.03 12.00Q106.03 12.08 105.90 12.15L105.90 12.15L105.90 12.15Q105.21 12.61 105.06 12.65L105.06 12.65L105.06 12.65Q104.84 12.48 104.73 12.39L104.73 12.39L104.53 12.17L104.32 11.92L104.32 11.92Q104.28 11.88 104.23 11.82L104.23 11.82L104.23 11.82Q104.19 11.76 104.16 11.72L104.16 11.72L104.16 11.72Q104.13 11.69 104.12 11.67L104.12 11.67L104.12 11.67Q103.88 12.00 103.38 12.30L103.38 12.30L103.38 12.30Q102.93 12.57 102.48 12.57L102.48 12.57L102.48 12.57Q101.98 12.57 101.59 12.30L101.59 12.30L101.59 12.30Q101.19 12.04 101.19 11.50ZM102.18 11.09L102.18 11.09L102.18 11.09Q102.18 11.39 102.39 11.60L102.39 11.60L102.39 11.60Q102.59 11.81 103.02 11.81L103.02 11.81L103.02 11.81Q103.55 11.81 103.78 11.57L103.78 11.57L103.78 11.57Q104.01 11.35 104.01 11.04L104.01 11.04L104.01 9.74L104.01 9.74Q103.20 9.74 102.69 10.16L102.69 10.16L102.69 10.16Q102.18 10.59 102.18 11.09ZM113.01 14.55L113.01 14.55L113.01 14.55Q113.01 13.45 114.45 12.87L114.45 12.87L114.95 12.69L114.95 12.69Q114.86 12.69 114.80 12.68L114.80 12.68L114.80 12.68Q114.78 12.68 114.67 12.65L114.67 12.65L114.67 12.65Q114.56 12.61 114.48 12.58L114.48 12.58L114.48 12.58Q114.32 12.54 114.07 12.43L114.07 12.43L114.07 12.43Q113.89 12.35 113.75 12.19L113.75 12.19L113.75 12.19Q113.59 12.00 113.60 11.83L113.60 11.83L113.60 11.83Q113.60 11.21 114.71 10.88L114.71 10.88L114.90 10.83L114.90 10.83Q114.88 10.83 114.84 10.82L114.84 10.82L114.84 10.82Q114.79 10.80 114.76 10.79L114.76 10.79L114.76 10.79Q114.69 10.76 114.44 10.60L114.44 10.60L114.44 10.60Q114.26 10.49 114.04 10.25L114.04 10.25L114.04 10.25Q113.86 10.04 113.72 9.70L113.72 9.70L113.72 9.70Q113.59 9.37 113.59 8.93L113.59 8.93L113.59 8.93Q113.59 8.07 114.26 7.44L114.26 7.44L114.26 7.44Q114.93 6.82 115.79 6.82L115.79 6.82L115.79 6.82Q116.41 6.82 116.92 7.11L116.92 7.11L116.92 7.11Q117.39 7.39 117.84 7.39L117.84 7.39L117.84 7.39Q118.08 7.39 118.23 7.33L118.23 7.33L118.23 7.33Q118.42 7.27 118.44 7.23L118.44 7.23L118.44 7.23Q118.51 7.16 118.57 7.07L118.57 7.07L118.64 6.91L118.93 6.91L118.93 7.26L118.93 7.26Q118.93 7.77 118.85 7.89L118.85 7.89L118.85 7.89Q118.76 8.02 118.37 8.02L118.37 8.02L118.15 8.02L118.15 8.02Q117.77 8.02 117.77 8.06L117.77 8.06L117.77 8.06Q117.77 8.10 117.85 8.20L117.85 8.20L117.85 8.20Q117.94 8.30 118.02 8.52L118.02 8.52L118.02 8.52Q118.09 8.70 118.09 9.02L118.09 9.02L118.09 9.02Q118.09 9.84 117.45 10.40L117.45 10.40L117.45 10.40Q116.79 10.97 115.79 10.97L115.79 10.97L115.79 10.97Q115.23 10.97 114.91 11.09L114.91 11.09L114.91 11.09Q114.59 11.22 114.59 11.48L114.59 11.48L114.59 11.48Q114.59 11.59 114.66 11.69L114.66 11.69L114.66 11.69Q114.71 11.76 114.88 11.79L114.88 11.79L114.88 11.79Q114.90 11.79 115.00 11.81L115.00 11.81L115.00 11.81Q115.11 11.83 115.17 11.83L115.17 11.83L115.50 11.83L115.55 11.83L116.02 11.83L116.02 11.83Q116.13 11.83 116.30 11.82L116.30 11.82L116.30 11.82Q116.46 11.81 116.51 11.81L116.51 11.81L116.51 11.81Q119.06 11.81 119.05 13.38L119.05 13.38L119.05 13.38Q119.05 14.42 117.98 15.26L117.98 15.26L117.98 15.26Q116.91 16.10 115.29 16.10L115.29 16.10L115.29 16.10Q114.39 16.10 113.71 15.70L113.71 15.70L113.71 15.70Q113.01 15.30 113.01 14.55ZM114.08 14.39L114.08 14.39L114.08 14.39Q114.08 14.87 114.50 15.16L114.50 15.16L114.50 15.16Q114.89 15.45 115.71 15.45L115.71 15.45L115.71 15.45Q116.62 15.45 117.35 15.00L117.35 15.00L117.35 15.00Q118.08 14.55 118.08 13.76L118.08 13.76L118.08 13.76Q118.08 12.72 116.33 12.72L116.33 12.72L116.33 12.72Q115.38 12.72 114.73 13.25L114.73 13.25L114.73 13.25Q114.08 13.79 114.08 14.39ZM114.75 8.83L114.75 8.83L114.75 8.83Q114.75 9.65 115.10 10.09L115.10 10.09L115.10 10.09Q115.45 10.54 115.91 10.54L115.91 10.54L115.91 10.54Q116.31 10.54 116.61 10.16L116.61 10.16L116.61 10.16Q116.90 9.78 116.90 9.07L116.90 9.07L116.90 9.07Q116.90 8.26 116.57 7.80L116.57 7.80L116.57 7.80Q116.23 7.33 115.75 7.33L115.75 7.33L115.75 7.33Q115.34 7.33 115.04 7.72L115.04 7.72L115.04 7.72Q114.75 8.13 114.75 8.83ZM126.68 9.85L126.68 9.85L126.68 9.85Q126.68 8.49 127.39 7.67L127.39 7.67L127.39 7.67Q128.10 6.83 129.17 6.83L129.17 6.83L129.17 6.83Q130.20 6.83 130.85 7.47L130.85 7.47L130.85 7.47Q131.49 8.11 131.49 8.62L131.49 8.62L131.49 8.62Q131.49 8.72 131.42 8.77L131.42 8.77L131.42 8.77Q131.35 8.83 131.26 8.83L131.26 8.83L127.75 9.25L127.75 9.33L127.75 9.33Q127.75 9.36 127.74 9.40L127.74 9.40L127.74 9.40Q127.74 9.43 127.74 9.45L127.74 9.45L127.74 9.45Q127.74 10.49 128.32 11.07L128.32 11.07L128.32 11.07Q128.90 11.64 129.81 11.64L129.81 11.64L129.81 11.64Q130.30 11.64 130.70 11.48L130.70 11.48L130.70 11.48Q131.13 11.29 131.35 11.16L131.35 11.16L131.35 11.16Q131.60 10.99 131.67 10.99L131.67 10.99L131.67 10.99Q131.79 10.99 131.80 11.16L131.80 11.16L131.80 11.16Q131.80 11.34 131.49 11.64L131.49 11.64L131.49 11.64Q131.15 11.98 130.56 12.28L130.56 12.28L130.56 12.28Q129.92 12.60 129.25 12.60L129.25 12.60L129.25 12.60Q128.55 12.60 128.03 12.33L128.03 12.33L128.03 12.33Q127.48 12.05 127.22 11.61L127.22 11.61L127.22 11.61Q126.92 11.14 126.81 10.75L126.81 10.75L126.81 10.75Q126.68 10.32 126.68 9.85ZM127.78 8.76L127.78 8.76L130.18 8.45L130.18 8.45Q130.18 8.44 130.17 8.39L130.17 8.39L130.17 8.39Q130.16 8.35 130.14 8.33L130.14 8.33L130.14 8.33Q130.13 8.31 130.08 8.22L130.08 8.22L130.08 8.22Q130.03 8.13 129.99 8.05L129.99 8.05L129.99 8.05Q129.88 7.83 129.77 7.70L129.77 7.70L129.77 7.70Q129.66 7.57 129.43 7.43L129.43 7.43L129.43 7.43Q129.22 7.31 129.02 7.30L129.02 7.30L129.02 7.30Q128.59 7.30 128.24 7.70L128.24 7.70L128.24 7.70Q127.87 8.10 127.78 8.76ZM140.10 7.46L139.35 7.59L139.35 7.16L141.31 6.77L141.31 6.77Q141.29 7.42 141.28 7.79L141.28 7.79L141.28 7.79Q141.29 7.79 141.32 7.77L141.32 7.77L141.32 7.77Q141.35 7.74 141.42 7.69L141.42 7.69L141.42 7.69Q141.49 7.64 141.54 7.59L141.54 7.59L141.54 7.59Q141.70 7.49 142.01 7.29L142.01 7.29L142.01 7.29Q142.29 7.12 142.58 7.01L142.58 7.01L142.58 7.01Q142.94 6.88 143.25 6.88L143.25 6.88L143.25 6.88Q143.53 6.88 143.77 7.01L143.77 7.01L143.77 7.01Q144.01 7.14 144.12 7.30L144.12 7.30L144.12 7.30Q144.23 7.46 144.28 7.58L144.28 7.58L144.28 7.58Q144.33 7.74 144.35 7.78L144.35 7.78L144.35 7.78Q145.54 6.88 146.30 6.88L146.30 6.88L146.30 6.88Q146.75 6.88 147.03 7.05L147.03 7.05L147.03 7.05Q147.31 7.21 147.44 7.53L147.44 7.53L147.44 7.53Q147.54 7.78 147.59 8.10L147.59 8.10L147.59 8.10Q147.64 8.35 147.64 8.73L147.64 8.73L147.64 11.61L147.64 11.61Q147.64 11.87 147.75 11.91L147.75 11.91L147.75 11.91Q147.92 11.96 148.41 11.96L148.41 11.96L148.54 11.96L148.54 12.41L145.83 12.41L145.83 11.96L145.83 11.96Q146.36 11.96 146.53 11.91L146.53 11.91L146.53 11.91Q146.65 11.87 146.66 11.63L146.66 11.63L146.66 8.73L146.66 8.73Q146.66 8.11 146.46 7.89L146.46 7.89L146.46 7.89Q146.27 7.67 145.80 7.67L145.80 7.67L145.80 7.67Q145.44 7.67 145.07 7.79L145.07 7.79L145.07 7.79Q144.70 7.92 144.57 8.02L144.57 8.02L144.42 8.13L144.42 8.13Q144.47 8.52 144.47 9.14L144.47 9.14L144.47 11.73L144.47 11.73Q144.47 11.93 144.57 11.94L144.57 11.94L144.57 11.94Q144.71 11.96 145.17 11.96L145.17 11.96L145.30 11.96L145.30 12.41L142.64 12.41L142.63 11.96L142.80 11.96L142.80 11.96Q143.23 11.96 143.36 11.92L143.36 11.92L143.36 11.92Q143.49 11.88 143.49 11.74L143.49 11.74L143.49 8.73L143.49 8.73Q143.49 7.66 142.61 7.67L142.61 7.67L142.61 7.67Q141.96 7.67 141.31 8.11L141.31 8.11L141.31 11.66L141.31 11.66Q141.31 11.87 141.42 11.91L141.42 11.91L141.42 11.91Q141.56 11.96 142.05 11.96L142.05 11.96L142.12 11.96L142.12 12.41L139.39 12.41L139.38 11.96L139.77 11.96L139.77 11.96Q140.12 11.96 140.22 11.91L140.22 11.91L140.22 11.91Q140.33 11.84 140.33 11.66L140.33 11.66L140.33 8.20L140.33 7.83L140.33 7.83Q140.33 7.75 140.30 7.62L140.30 7.62L140.30 7.62Q140.29 7.52 140.23 7.49L140.23 7.49L140.23 7.49Q140.18 7.46 140.10 7.46L140.10 7.46ZM156.11 9.85L156.11 9.85L156.11 9.85Q156.11 8.49 156.81 7.67L156.81 7.67L156.81 7.67Q157.52 6.83 158.59 6.83L158.59 6.83L158.59 6.83Q159.63 6.83 160.27 7.47L160.27 7.47L160.27 7.47Q160.91 8.11 160.91 8.62L160.91 8.62L160.91 8.62Q160.91 8.72 160.84 8.77L160.84 8.77L160.84 8.77Q160.77 8.83 160.69 8.83L160.69 8.83L157.17 9.25L157.17 9.33L157.17 9.33Q157.17 9.36 157.17 9.40L157.17 9.40L157.17 9.40Q157.16 9.43 157.16 9.45L157.16 9.45L157.16 9.45Q157.16 10.49 157.75 11.07L157.75 11.07L157.75 11.07Q158.32 11.64 159.23 11.64L159.23 11.64L159.23 11.64Q159.72 11.64 160.13 11.48L160.13 11.48L160.13 11.48Q160.56 11.29 160.77 11.16L160.77 11.16L160.77 11.16Q161.02 10.99 161.09 10.99L161.09 10.99L161.09 10.99Q161.21 10.99 161.22 11.16L161.22 11.16L161.22 11.16Q161.22 11.34 160.91 11.64L160.91 11.64L160.91 11.64Q160.58 11.98 159.98 12.28L159.98 12.28L159.98 12.28Q159.34 12.60 158.67 12.60L158.67 12.60L158.67 12.60Q157.97 12.60 157.45 12.33L157.45 12.33L157.45 12.33Q156.91 12.05 156.64 11.61L156.64 11.61L156.64 11.61Q156.34 11.14 156.24 10.75L156.24 10.75L156.24 10.75Q156.11 10.32 156.11 9.85ZM157.20 8.76L157.20 8.76L159.61 8.45L159.61 8.45Q159.61 8.44 159.59 8.39L159.59 8.39L159.59 8.39Q159.58 8.35 159.56 8.33L159.56 8.33L159.56 8.33Q159.55 8.31 159.50 8.22L159.50 8.22L159.50 8.22Q159.46 8.13 159.41 8.05L159.41 8.05L159.41 8.05Q159.30 7.83 159.19 7.70L159.19 7.70L159.19 7.70Q159.08 7.57 158.85 7.43L158.85 7.43L158.85 7.43Q158.64 7.31 158.44 7.30L158.44 7.30L158.44 7.30Q158.01 7.30 157.66 7.70L157.66 7.70L157.66 7.70Q157.29 8.10 157.20 8.76ZM168.79 12.41L168.77 11.96L168.91 11.96L168.91 11.96Q169.36 11.96 169.46 11.89L169.46 11.89L169.46 11.89Q169.54 11.83 169.54 11.49L169.54 11.49L169.54 8.16L169.54 8.16Q169.54 7.70 169.50 7.58L169.50 7.58L169.50 7.58Q169.46 7.46 169.33 7.46L169.33 7.46L169.28 7.47L169.28 7.47Q169.22 7.49 169.08 7.51L169.08 7.51L169.08 7.51Q168.94 7.54 168.80 7.57L168.80 7.57L168.80 7.14L170.52 6.79L170.52 6.79Q170.48 7.29 170.48 7.78L170.48 7.78L170.52 7.75L170.52 7.75Q170.56 7.71 170.66 7.65L170.66 7.65L170.66 7.65Q170.75 7.58 170.84 7.51L170.84 7.51L170.84 7.51Q171.18 7.26 171.63 7.08L171.63 7.08L171.63 7.08Q172.11 6.88 172.59 6.88L172.59 6.88L172.59 6.88Q172.93 6.88 173.15 6.97L173.15 6.97L173.15 6.97Q173.39 7.05 173.53 7.23L173.53 7.23L173.53 7.23Q173.64 7.39 173.76 7.59L173.76 7.59L173.76 7.59Q173.82 7.72 173.87 8.07L173.87 8.07L173.87 8.07Q173.91 8.39 173.91 8.58L173.91 8.58L173.91 8.58Q173.91 8.63 173.91 8.81L173.91 8.81L173.91 8.81Q173.92 9.00 173.92 9.14L173.92 9.14L173.92 11.55L173.92 11.55Q173.92 11.83 174.08 11.89L174.08 11.89L174.08 11.89Q174.25 11.96 174.77 11.96L174.77 11.96L174.76 12.41L172.16 12.41L172.14 11.96L172.46 11.96L172.46 11.96Q172.76 11.96 172.86 11.89L172.86 11.89L172.86 11.89Q172.94 11.83 172.94 11.55L172.94 11.55L172.94 8.73L172.94 8.73Q172.94 8.13 172.73 7.91L172.73 7.91L172.73 7.91Q172.52 7.67 172.03 7.67L172.03 7.67L172.03 7.67Q171.77 7.67 171.36 7.78L171.36 7.78L171.36 7.78Q170.97 7.89 170.76 8.00L170.76 8.00L170.52 8.11L170.52 11.49L170.52 11.49Q170.52 11.83 170.64 11.89L170.64 11.89L170.64 11.89Q170.75 11.96 171.36 11.96L171.36 11.96L171.54 11.96L171.51 12.41L168.79 12.41ZM182.31 7.58L182.31 7.58L182.31 7.58Q182.31 7.55 182.42 7.40L182.42 7.40L182.42 7.40Q182.49 7.31 182.79 7.01L182.79 7.01L182.79 7.01Q182.94 6.85 183.11 6.64L183.11 6.64L183.50 6.17L183.87 5.71L183.87 5.71Q184.00 5.54 184.04 5.54L184.04 5.54L184.04 5.54Q184.13 5.54 184.13 5.64L184.13 5.64L184.13 7.03L186.02 7.03L185.93 7.70L184.13 7.70L184.13 10.96L184.13 10.96Q184.13 11.79 185.07 11.79L185.07 11.79L185.07 11.79Q185.31 11.79 185.55 11.72L185.55 11.72L185.55 11.72Q185.79 11.66 185.93 11.59L185.93 11.59L185.93 11.59Q185.97 11.57 186.01 11.55L186.01 11.55L186.01 11.55Q186.05 11.53 186.07 11.53L186.07 11.53L186.09 11.52L186.09 11.52Q186.18 11.52 186.18 11.66L186.18 11.66L186.18 11.66Q186.18 11.95 185.63 12.26L185.63 12.26L185.63 12.26Q185.07 12.57 184.52 12.57L184.52 12.57L184.52 12.57Q183.81 12.57 183.48 12.16L183.48 12.16L183.48 12.16Q183.15 11.74 183.15 11.07L183.15 11.07L183.15 7.70L182.48 7.70L182.48 7.70Q182.31 7.69 182.31 7.58ZM203.85 11.84L203.85 11.84L203.85 11.84Q203.85 11.68 204.13 11.45L204.13 11.45L204.13 11.45Q204.41 11.21 204.52 11.21L204.52 11.21L204.52 11.21Q204.72 11.21 204.96 11.49L204.96 11.49L204.96 11.49Q205.18 11.76 205.18 11.91L205.18 11.91L205.18 11.91Q205.18 12.09 204.91 12.32L204.91 12.32L204.91 12.32Q204.63 12.56 204.48 12.55L204.48 12.55L204.48 12.55Q204.35 12.55 204.10 12.29L204.10 12.29L204.10 12.29Q203.85 12.02 203.85 11.84ZM223.06 3.64L223.04 3.08L230.25 3.08L230.25 3.08Q230.27 4.14 230.32 5.28L230.32 5.28L229.78 5.30L229.78 5.30Q229.76 4.66 229.71 4.25L229.71 4.25L229.71 4.25Q229.67 3.89 229.61 3.80L229.61 3.80L229.61 3.80Q229.56 3.71 229.44 3.69L229.44 3.69L229.44 3.69Q229.35 3.68 228.76 3.68L228.76 3.68L226.38 3.68L226.38 3.68Q225.83 3.68 225.69 3.77L225.69 3.77L225.69 3.77Q225.57 3.86 225.57 4.33L225.57 4.33L225.57 6.28L225.57 6.28Q225.57 6.69 225.62 6.76L225.62 6.76L225.62 6.76Q225.69 6.84 226.03 6.84L226.03 6.84L228.14 6.84L228.14 6.84Q228.50 6.84 228.59 6.73L228.59 6.73L228.59 6.73Q228.67 6.63 228.68 6.14L228.68 6.14L228.68 5.61L229.19 5.63L229.19 8.97L228.68 8.97L228.68 8.24L228.68 8.24Q228.68 7.66 228.60 7.57L228.60 7.57L228.60 7.57Q228.52 7.46 228.17 7.46L228.17 7.46L226.07 7.46L226.07 7.46Q225.74 7.46 225.65 7.54L225.65 7.54L225.65 7.54Q225.57 7.63 225.57 7.89L225.57 7.89L225.57 11.20L225.57 11.20Q225.57 11.57 225.65 11.67L225.65 11.67L225.65 11.67Q225.74 11.77 226.01 11.77L226.01 11.77L226.01 11.77Q228.93 11.75 229.46 11.69L229.46 11.69L229.46 11.69Q229.97 11.63 230.06 11.38L230.06 11.38L230.06 11.36L230.07 11.35L230.30 10.17L230.77 10.25L230.43 12.41L223.32 12.41L223.32 11.87L223.69 11.87L223.69 11.87Q224.25 11.87 224.33 11.80L224.33 11.80L224.33 11.80Q224.43 11.72 224.43 11.33L224.43 11.33L224.43 4.24L224.43 4.24Q224.43 3.82 224.28 3.73L224.28 3.73L224.28 3.73Q224.11 3.64 223.45 3.64L223.45 3.64L223.06 3.64ZM238.54 3.05L238.51 2.57L238.51 2.57Q239.48 2.43 240.57 2.25L240.57 2.25L240.57 11.59L240.57 11.59Q240.57 11.83 240.73 11.89L240.73 11.89L240.73 11.89Q240.92 11.96 241.47 11.96L241.47 11.96L241.71 11.96L241.71 12.41L238.65 12.41L238.65 11.96L238.96 11.96L238.96 11.96Q239.32 11.96 239.46 11.89L239.46 11.89L239.46 11.89Q239.59 11.83 239.59 11.59L239.59 11.59L239.59 3.61L239.59 3.61Q239.59 3.16 239.55 3.03L239.55 3.03L239.55 3.03Q239.50 2.91 239.34 2.91L239.34 2.91L239.34 2.91Q239.18 2.91 238.54 3.05L238.54 3.05ZM249.26 9.85L249.26 9.85L249.26 9.85Q249.26 8.49 249.96 7.67L249.96 7.67L249.96 7.67Q250.67 6.83 251.74 6.83L251.74 6.83L251.74 6.83Q252.78 6.83 253.42 7.47L253.42 7.47L253.42 7.47Q254.06 8.11 254.06 8.62L254.06 8.62L254.06 8.62Q254.06 8.72 253.99 8.77L253.99 8.77L253.99 8.77Q253.92 8.83 253.84 8.83L253.84 8.83L250.33 9.25L250.33 9.33L250.33 9.33Q250.33 9.36 250.32 9.40L250.32 9.40L250.32 9.40Q250.31 9.43 250.31 9.45L250.31 9.45L250.31 9.45Q250.31 10.49 250.90 11.07L250.90 11.07L250.90 11.07Q251.47 11.64 252.38 11.64L252.38 11.64L252.38 11.64Q252.88 11.64 253.28 11.48L253.28 11.48L253.28 11.48Q253.71 11.29 253.92 11.16L253.92 11.16L253.92 11.16Q254.17 10.99 254.24 10.99L254.24 10.99L254.24 10.99Q254.37 10.99 254.37 11.16L254.37 11.16L254.37 11.16Q254.37 11.34 254.06 11.64L254.06 11.64L254.06 11.64Q253.73 11.98 253.13 12.28L253.13 12.28L253.13 12.28Q252.49 12.60 251.82 12.60L251.82 12.60L251.82 12.60Q251.13 12.60 250.61 12.33L250.61 12.33L250.61 12.33Q250.06 12.05 249.79 11.61L249.79 11.61L249.79 11.61Q249.50 11.14 249.39 10.75L249.39 10.75L249.39 10.75Q249.26 10.32 249.26 9.85ZM250.35 8.76L250.35 8.76L252.76 8.45L252.76 8.45Q252.76 8.44 252.75 8.39L252.75 8.39L252.75 8.39Q252.73 8.35 252.72 8.33L252.72 8.33L252.72 8.33Q252.70 8.31 252.66 8.22L252.66 8.22L252.66 8.22Q252.61 8.13 252.56 8.05L252.56 8.05L252.56 8.05Q252.45 7.83 252.34 7.70L252.34 7.70L252.34 7.70Q252.23 7.57 252.01 7.43L252.01 7.43L252.01 7.43Q251.79 7.31 251.60 7.30L251.60 7.30L251.60 7.30Q251.17 7.30 250.81 7.70L250.81 7.70L250.81 7.70Q250.45 8.10 250.35 8.76ZM262.02 9.86L262.02 9.86L262.02 9.86Q262.02 8.63 262.71 7.72L262.71 7.72L262.71 7.72Q263.40 6.80 264.60 6.80L264.60 6.80L264.60 6.80Q265.03 6.80 265.48 6.91L265.48 6.91L265.48 6.91Q265.87 7.01 266.16 7.19L266.16 7.19L266.16 7.19Q266.46 7.38 266.59 7.50L266.59 7.50L266.59 7.50Q266.75 7.66 266.74 7.72L266.74 7.72L266.74 7.72Q266.74 7.91 266.40 8.03L266.40 8.03L266.40 8.03Q266.11 8.14 265.88 8.14L265.88 8.14L265.88 8.14Q265.67 8.14 265.18 7.75L265.18 7.75L265.18 7.75Q264.69 7.36 264.35 7.36L264.35 7.36L264.35 7.36Q263.84 7.36 263.53 7.75L263.53 7.75L263.53 7.75Q263.22 8.14 263.12 8.62L263.12 8.62L263.12 8.62Q263.02 9.05 263.02 9.53L263.02 9.53L263.02 9.53Q263.02 10.71 263.65 11.22L263.65 11.22L263.65 11.22Q264.29 11.76 265.06 11.76L265.06 11.76L265.06 11.76Q265.63 11.76 266.03 11.67L266.03 11.67L266.03 11.67Q266.42 11.59 266.62 11.50L266.62 11.50L266.62 11.50Q266.81 11.42 266.87 11.42L266.87 11.42L266.87 11.42Q266.98 11.42 266.98 11.55L266.98 11.55L266.98 11.55Q266.98 11.80 266.21 12.20L266.21 12.20L266.21 12.20Q265.47 12.59 264.65 12.60L264.65 12.60L264.65 12.60Q263.91 12.60 263.35 12.36L263.35 12.36L263.35 12.36Q262.82 12.13 262.54 11.70L262.54 11.70L262.54 11.70Q262.25 11.25 262.14 10.85L262.14 10.85L262.14 10.85Q262.02 10.45 262.02 9.86ZM274.62 7.58L274.62 7.58L274.62 7.58Q274.62 7.55 274.73 7.40L274.73 7.40L274.73 7.40Q274.80 7.31 275.10 7.01L275.10 7.01L275.10 7.01Q275.26 6.85 275.42 6.64L275.42 6.64L275.81 6.17L276.19 5.71L276.19 5.71Q276.31 5.54 276.36 5.54L276.36 5.54L276.36 5.54Q276.44 5.54 276.44 5.64L276.44 5.64L276.44 7.03L278.33 7.03L278.24 7.70L276.44 7.70L276.44 10.96L276.44 10.96Q276.44 11.79 277.38 11.79L277.38 11.79L277.38 11.79Q277.62 11.79 277.87 11.72L277.87 11.72L277.87 11.72Q278.10 11.66 278.24 11.59L278.24 11.59L278.24 11.59Q278.28 11.57 278.32 11.55L278.32 11.55L278.32 11.55Q278.36 11.53 278.38 11.53L278.38 11.53L278.40 11.52L278.40 11.52Q278.50 11.52 278.50 11.66L278.50 11.66L278.50 11.66Q278.50 11.95 277.94 12.26L277.94 12.26L277.94 12.26Q277.38 12.57 276.83 12.57L276.83 12.57L276.83 12.57Q276.12 12.57 275.80 12.16L275.80 12.16L275.80 12.16Q275.46 11.74 275.46 11.07L275.46 11.07L275.46 7.70L274.79 7.70L274.79 7.70Q274.62 7.69 274.62 7.58ZM286.11 7.57L286.10 7.15L286.10 7.15Q287.13 6.98 288.07 6.73L288.07 6.73L288.07 11.59L288.07 11.59Q288.07 11.83 288.20 11.89L288.20 11.89L288.20 11.89Q288.33 11.96 288.94 11.96L288.94 11.96L289.19 11.96L289.19 12.41L286.15 12.41L286.15 11.96L286.28 11.96L286.28 11.96Q286.83 11.96 286.95 11.91L286.95 11.91L286.95 11.91Q287.09 11.85 287.10 11.64L287.10 11.64L287.10 7.91L287.10 7.91Q287.10 7.64 287.05 7.55L287.05 7.55L287.05 7.55Q287.01 7.46 286.88 7.46L286.88 7.46L286.88 7.46Q286.71 7.46 286.11 7.57L286.11 7.57ZM287.15 4.09L287.15 4.09L287.15 4.09Q287.15 3.92 287.37 3.72L287.37 3.72L287.37 3.72Q287.59 3.51 287.73 3.51L287.73 3.51L287.73 3.51Q287.88 3.51 288.10 3.73L288.10 3.73L288.10 3.73Q288.34 3.97 288.34 4.11L288.34 4.11L288.34 4.11Q288.34 4.25 288.10 4.49L288.10 4.49L288.10 4.49Q287.86 4.73 287.74 4.73L287.74 4.73L287.74 4.73Q287.55 4.73 287.35 4.48L287.35 4.48L287.35 4.48Q287.15 4.23 287.15 4.09ZM296.76 9.69L296.76 9.69L296.76 9.69Q296.76 8.48 297.47 7.66L297.47 7.66L297.47 7.66Q298.19 6.80 299.54 6.80L299.54 6.80L299.54 6.80Q300.22 6.80 300.74 7.01L300.74 7.01L300.74 7.01Q301.33 7.25 301.59 7.51L301.59 7.51L301.59 7.51Q301.90 7.82 302.11 8.24L302.11 8.24L302.11 8.24Q302.30 8.61 302.39 9.05L302.39 9.05L302.39 9.05Q302.47 9.43 302.48 9.84L302.48 9.84L302.48 9.84Q302.48 11.03 301.68 11.83L301.68 11.83L301.68 11.83Q300.88 12.63 299.56 12.63L299.56 12.63L299.56 12.63Q298.23 12.63 297.49 11.74L297.49 11.74L297.49 11.74Q296.76 10.88 296.76 9.69ZM297.88 9.34L297.88 9.34L297.88 9.34Q297.88 10.38 298.42 11.24L298.42 11.24L298.42 11.24Q298.94 12.08 299.74 12.08L299.74 12.08L299.74 12.08Q300.54 12.08 300.92 11.42L300.92 11.42L300.92 11.42Q301.30 10.76 301.30 9.80L301.30 9.80L301.30 9.80Q301.30 8.57 300.77 7.94L300.77 7.94L300.77 7.94Q300.22 7.28 299.41 7.27L299.41 7.27L299.41 7.27Q298.76 7.27 298.32 7.82L298.32 7.82L298.32 7.82Q297.88 8.35 297.88 9.34ZM310.06 12.41L310.04 11.96L310.18 11.96L310.18 11.96Q310.63 11.96 310.73 11.89L310.73 11.89L310.73 11.89Q310.81 11.83 310.81 11.49L310.81 11.49L310.81 8.16L310.81 8.16Q310.81 7.70 310.77 7.58L310.77 7.58L310.77 7.58Q310.73 7.46 310.60 7.46L310.60 7.46L310.55 7.47L310.55 7.47Q310.50 7.49 310.35 7.51L310.35 7.51L310.35 7.51Q310.21 7.54 310.07 7.57L310.07 7.57L310.07 7.14L311.79 6.79L311.79 6.79Q311.75 7.29 311.75 7.78L311.75 7.78L311.79 7.75L311.79 7.75Q311.83 7.71 311.93 7.65L311.93 7.65L311.93 7.65Q312.02 7.58 312.12 7.51L312.12 7.51L312.12 7.51Q312.45 7.26 312.90 7.08L312.90 7.08L312.90 7.08Q313.38 6.88 313.87 6.88L313.87 6.88L313.87 6.88Q314.20 6.88 314.43 6.97L314.43 6.97L314.43 6.97Q314.67 7.05 314.80 7.23L314.80 7.23L314.80 7.23Q314.91 7.39 315.03 7.59L315.03 7.59L315.03 7.59Q315.10 7.72 315.14 8.07L315.14 8.07L315.14 8.07Q315.18 8.39 315.18 8.58L315.18 8.58L315.18 8.58Q315.18 8.63 315.18 8.81L315.18 8.81L315.18 8.81Q315.19 9.00 315.19 9.14L315.19 9.14L315.19 11.55L315.19 11.55Q315.19 11.83 315.35 11.89L315.35 11.89L315.35 11.89Q315.52 11.96 316.05 11.96L316.05 11.96L316.03 12.41L313.43 12.41L313.41 11.96L313.74 11.96L313.74 11.96Q314.03 11.96 314.13 11.89L314.13 11.89L314.13 11.89Q314.21 11.83 314.21 11.55L314.21 11.55L314.21 8.73L314.21 8.73Q314.21 8.13 314.00 7.91L314.00 7.91L314.00 7.91Q313.79 7.67 313.30 7.67L313.30 7.67L313.30 7.67Q313.04 7.67 312.63 7.78L312.63 7.78L312.63 7.78Q312.25 7.89 312.03 8.00L312.03 8.00L311.79 8.11L311.79 11.49L311.79 11.49Q311.79 11.83 311.91 11.89L311.91 11.89L311.91 11.89Q312.02 11.96 312.63 11.96L312.63 11.96L312.81 11.96L312.79 12.41L310.06 12.41ZM323.83 12.76L323.58 10.44L324.02 10.41L324.15 11.57L324.15 11.57Q324.90 12.12 325.69 12.12L325.69 12.12L325.69 12.12Q326.08 12.12 326.29 11.87L326.29 11.87L326.29 11.87Q326.50 11.61 326.50 11.32L326.50 11.32L326.50 11.32Q326.50 11.09 326.35 10.86L326.35 10.86L326.35 10.86Q326.22 10.64 326.05 10.51L326.05 10.51L326.05 10.51Q325.88 10.38 325.54 10.16L325.54 10.16L325.04 9.82L325.04 9.82Q323.98 9.13 323.98 8.27L323.98 8.27L323.98 8.27Q323.98 7.70 324.47 7.29L324.47 7.29L324.47 7.29Q324.98 6.87 325.69 6.87L325.69 6.87L325.69 6.87Q326.09 6.87 326.50 6.99L326.50 6.99L326.91 7.12L326.91 7.12Q327.03 7.12 327.04 6.70L327.04 6.70L327.48 6.71L327.48 8.83L327.04 8.83L327.02 7.83L327.02 7.83Q326.57 7.37 325.71 7.38L325.71 7.38L325.71 7.38Q325.42 7.38 325.16 7.57L325.16 7.57L325.16 7.57Q324.91 7.77 324.91 8.05L324.91 8.05L324.91 8.05Q324.91 8.23 325.05 8.44L325.05 8.44L325.05 8.44Q325.17 8.63 325.27 8.69L325.27 8.69L325.68 8.98L326.31 9.41L326.31 9.41Q326.70 9.68 326.94 9.86L326.94 9.86L326.94 9.86Q327.20 10.06 327.36 10.36L327.36 10.36L327.36 10.36Q327.54 10.66 327.54 11.01L327.54 11.01L327.54 11.01Q327.54 11.67 327.07 12.13L327.07 12.13L327.07 12.13Q326.58 12.60 325.72 12.60L325.72 12.60L325.72 12.60Q325.42 12.60 325.12 12.55L325.12 12.55L325.12 12.55Q324.99 12.54 324.59 12.46L324.59 12.46L324.59 12.46Q324.38 12.41 324.35 12.41L324.35 12.41L324.35 12.41Q324.23 12.41 324.22 12.60L324.22 12.60L324.22 12.67L324.22 12.67Q324.22 12.68 324.23 12.71L324.23 12.71L324.24 12.74L323.83 12.76Z"></path></g></svg>